<svg version="1.1" viewBox="0 0 533.7 476.3" xmlns="http://www.w3.org/2000/svg"><defs><style>.st0{fill:none;stroke:#00a7e1;stroke-linecap:round;stroke-miterlimit:10}</style></defs><path class="st0" d="M282.9,5.6l-57.6,54.5M282.9,5.6l-45,64.7M282.9,5.6L80.8,146M282.9,5.6L.5,66.8M282.9,5.6l-197.6,59.8M282.9,5.6l82.1,277.8M282.9,5.6l129.2,97M282.9,5.6l219.9,122M282.9,5.6L533.2.5M225.3,60.1l12.6,10.2M225.3,60.1l-144.6,86M225.3,60.1L.5,66.8M225.3,60.1l-140,5.3M225.3,60.1l59,274.5M225.3,60.1l2.3,273.4M225.3,60.1l139.6,223.3M225.3,60.1l186.8,42.5M225.3,60.1l277.5,67.4M237.9,70.3l-157.1,75.7M237.9,70.3L.5,66.8M237.9,70.3l-152.6-5M237.9,70.3l46.4,264.2M237.9,70.3l-10.2,263.2M237.9,70.3l127.1,213.1M237.9,70.3l174.2,32.3M237.9,70.3l264.9,57.2M80.8,146L.5,66.8M80.8,146l4.5-80.7M80.8,146l203.6,188.5M80.8,146l146.9,187.5M80.8,146l174.2,229.9M.5,66.8l84.8-1.4M284.3,334.5l-56.7-1M284.3,334.5l80.7-51.2M284.3,334.5l127.8-231.9M284.3,334.5l-29.4,41.4M284.3,334.5l-55.9,141.3M284.3,334.5l-24.1,67.5M227.7,333.5l137.3-50.1M227.7,333.5l27.3,42.4M227.7,333.5l.8,142.3M227.7,333.5l32.6,68.6M365,283.4l47.1-180.8M365,283.4l137.8-155.9M365,283.4l-110.1,92.5M365,283.4l-136.5,192.5M365,283.4l-104.7,118.7M412.1,102.6l90.7,24.9M412.1,102.6L533.2.5M502.8,127.5L533.2.5M254.9,375.9l-26.5,99.9M254.9,375.9l5.3,26.1M228.5,475.8l31.8-73.8"/></svg>
