<svg fill="none" version="1.1" viewBox="0 0 573 555" xmlns="http://www.w3.org/2000/svg"><g clip-path="url(#a)" stroke="#A6192E" stroke-linecap="round" stroke-miterlimit="10"><path id="b" d="m220.1 383.2-40.1 17.4 6.4-51.1 34.7 33.1m-178.5-49.8-42 44.4m42-44.4 10.8 13.9m-10.8-13.9-8.3-60.1m8.3 60.1 2.8-3.9 42.7-38.1m-45.5 42 44.5-41.9m265.4 39.8 21.7 21.8m-21.7-21.8-44.6-31.2m44.6 31.2 54.3-4.3-30.4-44.8m-23.9 49.1-2.5 50.1m2.5-50.1-19.3 40.7m19.3-40.7 4.5-26.5m-4.5 26.5-11.7-12.1 35.6-37m-23.9 49.1-22.5 9.2m22.5-9.2 23.9-49.4m-19.4 22.9-28.6 35.5m28.6-35.5-14.5-61.3m33.9 38.4-33.9-38.4m33.9 38.4 59.8 22.2m-59.8-22.2 9.1-46.8m-57.1 105.2 45.8 12.7m-45.8-12.7-49.7-15.4-1.7-36.8m51.4 52.2-20.6-40.3m20.6 40.3 21.5 41m-21.5-41 4.8 31.6m-4.8-31.6 12.3-21.1m-12.3 21.1 24-9.1m-96.3-109.7 37.9 39.6m-37.9-39.6-24.4-26.4m24.4 26.4-24.2-26.4m62.1 66 48.5-17.6m-48.5 17.6 30.6-49.1m-30.6 49.1-17 27m65.5-44.6-3.5-3.2-14.4-28.3m17.9 31.5 35.5-11m-35.5 11 6.7-8.5m-6.7 8.5 43.2-8.7m-43.2 8.7-17.7-31.9m17.7 31.9-17.9-31.5m17.9 31.5 33.9 38.7m59.8 21.9 30.9-47.5m-30.9 47.5 6.9-22.4m-6.9 22.4 0.5 25.2m-0.5-25.2-2.8 24.1m2.8-24.1-14-29.4-45.8 7.5m59.8 21.9-7.2-14.9-52.6-7m59.8 21.9-29.3 22.9m29.3-22.9-59.8-21.9m-211.2-35.6 7 48.8m-7-48.8 21.6 41.6m-21.6-41.6 27.7 41.9m-27.7-41.9 1-18m219.3 6.5-46.5 5.3m46.5-5.3 38.8-49.2-16.9 22.8m-21.9 26.4 36.7 39.7m-36.7-39.7-7.4-2.5 29.3-23.9m-21.9 26.4h-36.2l58.1-26.4m-21.9 26.4-43 8.5m43-8.5 21.3-26.8m-21.3 26.8 21.9-26.4m83.7-164.8 54.5 27.4m-54.5-27.4 9.3 57.1m-9.3-57.1 8.7 58m0.6-0.9-41 10.7m41-10.7 45.1-29-54.4-28.2m-166.5 168.2 53.5 20.5-1.7 49.7m-51.8-70.2 24.7 23 27.1 47.2m-51.8-70.2-9.4-54.1m9.4 54.1-9-54.1m143.8-46.2 26.7 19.6 13.7-29.4m-40.4 9.8 1.4 29.2m-372.7 150.5 24.2 49.1m-24.2-49.1-53.8-18m53.8 18-45.5 42.1m315.9 146.8-41.9-24.7 33.6 17.7m8.3 7-21.4-58.8m21.4 58.8 7.7-51.4m-7.7 51.4 43-20.4m-43 20.4-8-6.7m8 6.7-45 12.2m45-12.2 42.7-21.1m-42.7 21.1-8.3-7m16-44.4 35 30.3m-35-30.3-16 44.4m51-14.1-50.7 14.5m50.7-14.5 34.8 20.6m-34.8-20.6 32-21 2.8 41.3m-34.8-20.3 43.6-18.7m-43.6 18.7-51 14.1m51-14.1 34.8 20.3m-34.8-20.3 32.1-21.2m-32.1 21.2 43.1-19m-36.9-231.5 46.5-21.2m-46.5 21.2-11.7-51.3m-167.6 328.8 2-23.3m-2 23.3-49.9-24.2m49.9 24.2-61.3-16.4m61.3 16.4-57.8-13.4 41.3 38.6m16.5-25.2v-6.1m0 6.1 57.5-8.5m-57.5 8.5-17.2 25.5m10.2-128.5-17.5-17.8m17.5 17.8-21.8-24.2m21.8 24.2-35.5 14.6m35.5-14.6 18.1 6.2m-18.1-6.2-13.3-10.5m13.3 10.5 32.6-33.2m-32.6 33.2-31.2-29.3m31.2 29.3-11.5-20.1m11.5 20.1-41.1 17.9m319.8-299.2 24.4 47.3m-24.4-47.3-39 38.9m39-38.9-40.4 9.7m40.4-9.7 45.8-29.9m-334 439.4 18.5-48.4m-18.5 48.4-33.4-49.3m33.4 49.3-44.8-41.5m44.8 41.5 16.4-31.3m-16.4 31.3 16.5-25.1m148.3-204.1-37.3-41.9m37.3 41.9-19.4 22.5m19.4-22.5-23.9 49m23.9-49 9.1-47.2m-35.3 238.3-40.6-38.2m40.6 38.2-46.5-40.5 8.7 59.5m37.8-19-13.1-51.7m13.1 51.7-28.1-50.7m28.1 50.7-36.7 19.3m36.7-19.3-37.8 19m123.6-12.8 8.7-39m-8.7 39 8.3-39.3m-167.3-152.1 30.9 11.9m-30.9-11.9-13.2 43.1m48.6 161.1 4.2-36.6m-4.2 36.6-2.9-57.2m2.9 57.2-26.8-14.5m26.8 14.5 46.1-11.9m74.8-42.4 27.3-23.4m-27.3 23.4 2.8 41.6m-2.8-41.6 11.5 2.6m-0.5-0.4 16.3-25.7m-16.3 25.7-11.1-2.3"/><path d="m541.4 177.8-17.2-29.2m17.2 29.2 1.6 14.7m-1.6-14.7 18.2 10.6m-18.2-10.6 29.7 36.4m-10.5 125.5-39.8-20.8m39.8 20.8 8.4-29.1-5.4 28.7m-3 0.4-22.4 46.9m22.4-46.9 4.4-0.2-26.8 46.8m22.4-46.6-22.4 46.6m22.4-46.6 3-0.4m-42.8-20.4-22.5-32.6m22.5 32.6 42.8 20.4m-65.3-53-31.3-30.3m31.3 30.3-55.3-5.1m55.3 5.1 2.4 27.6m-2.4-27.6 19.9-38.4m-19.9 38.4-27.4-39.6m27.4 39.6-27.2-39.2m67.1 139.2 25.4-47m-214.3-104.9-55.2 26.1m55.2-26.1-10.2 5.3m10.2-5.3 28.8-2.5m-28.8 2.5-7.3 8.4 15 61.4m-7.7-69.8 36.4-0.2m-36.4 0.2-24.5-23.4m24.5 23.4 57.5-26.7m-57.5 26.7 27.1 46.9-19.4 22.9m19.4-22.9-35.6 37.3m130.3-71.5-4 8.9m4-8.9-28 34m28-34 47.2 0.8m-47.2-0.8-17.2-60.3m17.2 60.3-48.9 27m48.9-27-42.1 41.5m-72 15.6 17.2 48.2-33.4-33.8m16.2-14.4-49.1-4.7m49.1 4.7 49.8 22.2m-49.8-22.2-15.9 14.1m15.9-14.1-3.9 26.3-12.3-11.9m16.2-14.4-27 35.7 10.8-21.3m16.2-14.4-16.2 14.4m-32.9-19.1-44 31.1m44-31.1 32.9 19.1m-76.9 12 14.9-6.3m-14.9 6.3-24.6 58.2m24.6-58.2-10.2 18.8-44.1 13.1m54.3-31.9-54.5 31.9m54.5-31.9 13.1-43.1m89.2 140.8-49.6 26.7-31 22.1m80.6-48.8-56.7 6.1-23.9 42.7m80.6-48.8-62.5 3.8-18.1 45m80.6-48.8-29.1-7.4m29.1 7.4-44.2-6.3-22.2 5.6m66.4 0.7-16.2-47.5-9.2-62.2m25.4 109.7-7.7 51.7m7.7-51.7 35.3 31m-35.3-31-15.7 44.8m-9.7-154.5-62.1 5.7m62.1-5.7-7.6 52.8m-33.4 56.2 16.7 27.5m-16.7-27.5 9.7 6.9m-9.7-6.9-1.7-27.6m1.7 27.6-17.6 3.3 3.4 46.2m14.2-49.5 3.8 4.6m-3.8-4.6 37.2-6.6m-37.2 6.6-14.3 50.5m-75.9-115.6-6.1 2.3m6.1-2.3-10.3-4.1m10.3 4.1-24 34.7 0.8-47.7m23.2 13 29.6 26.3-59.2 11.8m29.6-38.1-1.9 9.7-27.7 28.4m29.6-38.1-56.8 11.6m56.8-11.6-19.7-9.2m19.7 9.2 54.2-31.9m-54.2 31.9-23.6-12.5m23.6 12.5-28.1 38.8m28.1-38.8 10.5 20.7m-10.5-20.7-23.2-13m23.2 13-29.6 38.1m23.5-35.8-17.1-15.3m17.1 15.3-23.5 35.8m19.3-42.2-12.9-8.9m12.9 8.9-19.3 42.2m-27.2-26.5 33.6-24.6m-33.6 24.6-39.4 33m39.4-33-13.1-24.5m50.2 3.7-3.5-3.8m3.5 3.8-9.9 47.3m-9.7 71.6 59.8-9.8m-59.8 9.8 7.9-10.7m-7.9 10.7-19.2-54-37.7-11.1m56.9 65.1-3.5-3 61.2 10.3m-57.7-7.3-4.6-43.2m4.6 43.2-15.6-39.9m15.6 39.9 57.8 7.6m-57.8-7.6 58.2 13.6-0.5-6.3m-57.7-7.3 40.5 38.9 17.2-31.6m-57.7-7.3 57.7 7.3m2.1-17.1-2.1 17.1m2.1-17.1 55.5 14.7m-107.4-15.6 49.8 18m-49.8-18 1.8-60.9m-14.3 28.4-52.3-21.9m52.3 21.9 14.3-28.4m-25.3 31.7-41.3-25.2m41.3 25.2 25.3-31.7m6.4-51.1-14.3-54.7m14.3 54.7 0.3-61.9m-0.3 61.9 21.3 22.6m-21.3-22.6 6.4-62m-6.4 62h-46.9m46.9 0-4.9 51.7m4.9-51.7 33.7 33.6m-33.7-33.6 6.5-61.7-20.7 7-32.5 54.8m53.2-61.8-6.1-0.2-20.6-59.6-1.2 17.1 27.9 42.7zm-158.6-15 11.4 56.8m-11.4-56.8 7.2 60.1m-7.2-60.1 52.8 18.2-41.7 37.9m68 78.2-5.5 7.5m5.5-7.5-55.5 25.8m55.5-25.8 4.4 17.8m-4.4-17.8 17-12.5m-17 12.5-11.7-36.2m11.7 36.2 1.9-11.7 24.4-45.8m-26.3 57.5-10 40.1m10-40.1 26.1-57.5m-26.1 57.5 26.3-57.5 59.6 8.7m-59.6-8.7-9.4 44.9m9.4-44.9-38 21.2m38-21.2-27.4-9.7m27.4 9.7 50.2 3.6m-50.2-3.6h46.7m-141-20.7 8 17.8m-8-17.8-11.1-56.2m11.1 56.2-3.8 3.9m186.4 146.7 57.5-1.5m0.1-0.9 14.3-49.6m-14.3 49.6-57.5 2.4m57.5-2.4-57 8.7m57-8.7 27.9 14.8m-133.5-91.3 5.6-3.3m-5.6 3.3-49.7-6m49.7 6-27.2-26.4m27.2 26.4-28.9 17.7"/><path d="m378.1 232 44.1 42.2 6.8 14.5m-50.9-56.7-29.7 1.8m29.7-1.8-36.1 10.9m36.1-10.9 7.6 2.4m-7.6-2.4-53.3-20.9m53.3 20.9 28.7-24.2-11.2-51 28.7 28.5m-46.2 46.7-1.7 49.4 52.6 7.3 38.1-32.6m-38.1 32.6 14.1-7.5m-14.1 7.5 7.7 40.1m-7.7-40.1 4.4 39m-4.4-39-22 37.8m22-37.8 41.9-41.9m-41.9 41.9 6.9 14.9m84.9 15.3-20.1-5m20.1 5 48.3-7.7m-48.3 7.7 39.8 21 8.4-29.3m-48.2 8.3-22.9-32.7m22.9 32.7 44.2 20.5 4-28.8m-48.2 8.3 48.2-8.3m-315.3 38.8-50.1 15.4m50.1-15.4-54.4 9-9.4-5.1m63.8-3.9 25-25.1m-25 25.1-14.5 39.4-49.3-35.5m63.8-3.9-45.9 22.7m45.9-22.7-63.9 2.2m63.9-2.2 9.4-18.5m-9.4 18.5-44.3 13.1-19.5-9.2m63.8-3.9-33.6 33.7m33.6-33.7-63.8 3.9m-77.6-13.4 18.1 54.6m-18.1-54.6-10.6 31m10.6-31 3 55.5m-3-55.5 40.5 34.2m-40.5-34.2-59.5 6.1m59.5-6.1 27.2 9.7 50.4 3.7m-77.6-13.4-25.1-48.9m28.1 104.4 50.4 33.6m-50.4-33.6 39.4 36.9m-1.9-58.2 37.1-20.8m-37.1 20.8 12.9 54.9m-12.9-54.9 1.9 58.2m23.5 29.2 51.9 0.9-63.3 6.9m11.4-7.8-26.2-43.5m26.2 43.5-11.4 7.7m11.4-7.7-13.3-32.7 1.9 40.5m11.4-7.8-24.5-29.4 13.1 37.2m11.4-7.8-8 10.8m8-10.8 49.9 18.3-61.3-10.5m11.4-7.8 3.3-60.2m-3.3 60.2 50.4 24.4-61.8-16.6m11.4-7.8 32.6 49.6m-32.6-49.6-27.1-43.2m27.1 43.2-11.4 7.8m11.4-7.8-12.5-32.5m12.5 32.5-23.5-29.2m15.5 40-19.1-54m19.1 54-3.4-3m3.4 3-4.5-43.3m4.5 43.3-15.5-40m26.8-31-30.4 17m30.4-17 8.4-48m-8.4 48-15.8 27.7m15.8-27.7-26.8 31m-3.6-14 34.5-21m-34.5 21-43.2-3.7m43.2 3.7-33.3 6.6m33.3-6.6-20.7-23.7m20.7 23.7-35.8-22.8m35.8 22.8 1.7-44.1m-1.7 44.1 15.8 50.9m-15.8-50.9 13.8 10.6m-13.8-10.6-48.4 28.6m48.4-28.6 2.7 13.8 11.9-3.1m-14.6-10.7-37.5-11.1m37.5 11.1 15.7 51m-15.7-51 14.6 10.7m19.9-31.7 4.3-44m-4.3 44-19.9 31.7m-57.8-14.4 57.8 14.4m-57.8-14.4 46.8 17.7m-36.9-7.4 47.9 4.1m-47.9-4.1-14.5 22.3m14.5-22.3 36.9 7.4m-24.3-37.7 35.3 34.4m-35.3-34.4 24.3 37.7m-101.3-85.6-32.8 53m32.8-53-52.8 30.5m52.8-30.5 48.2 24.2m-48.2-24.2 58.8-6.8m-58.8 6.8-7.7-17.2m7.7 17.2-11.9-13.9m125.3 136.5 44.1 41.8m-44.1-41.8-1.1-40.3m1.1 40.3-12.1-37m35.2-79-17.7-58.5m17.7 58.5 13.6 11.5m-13.6-11.5 17.9 18.9m-17.9-18.9-3.9-3.3m3.9 3.3 30.2 29.9m-54.4 45.8-52.1-21.9-10.3 40.1m62.4-18.2-11 3.3m-51.4 14.9 4.5-32.6m-4.5 32.6-45.5-14.3m45.5 14.3-54.8-21.1m54.8 21.1 27-52.7m-27 52.7 11.9-51.8m-11.9 51.8 47.7-29m-47.7 29 50.4-15.2m1 0.3 30.9-35.1m-30.9 35.1-3.6-14.1m3.6 14.1-51.3 14.9m51.3-14.9-41-25.2m208.3 14.9-5.4 33m5.4-33-12.5 12.5m12.5-12.5-23.9-22.1 35.1-28.5m-11.2 50.6-39.8 8.9m39.8-8.9-18.3 10.2m18.3-10.2 15.1-1m-15.1 1 27.5-41.4m-27.5 41.4 11.1-50.6m-11.1 50.6 43.8 6.5m-43.8-6.5-22.2 5.8m22.2-5.8 28.5 51.1m-28.5-51.1 11.2-50.6m3.9 49.6 12.9-40.2m-12.9 40.2-3.9-49.6m73.6-45 36.2-45.3m-36.2 45.3 29.8 2.3m-29.8-2.3 26.6 1.2m-26.6-1.2-32.6 26m32.6-26 15.4-52.3m-15.4 52.3 22.2-37.8m-22.2 37.8-50.5-22.1m50.5 22.1-53.7 4.1m53.7-4.1 29.1-22.9m-29.1 22.9-30.4-45.1m-23.3 49.2-3.1 50.3m3.1-50.3-19.9 40.9m16.8 9.4 24.2-28.3-41 18.9m16.8 9.4-51.8 19.1m51.8-19.1-27.9 41.2m27.9-41.2-16.8-9.4m16.8 9.4 15.8 47.8m-15.8-47.8-8.8-62.5m8.8 62.5-20-40.9 3.2 31.5 16.7 9.4m-16.7-9.4 7.9-53.1m92.1 119.4 27.4-23.7-15.8 26m124.2-129.4 3.6-41.8m-3.6 41.8-10.8-55.1m0-0.2 12.8-41m-12.8 41 14.3 13.6m-14.3-13.6 11.5-16.4m-11.5 16.4-40-7.4m40 7.4 10.7 55.3m-10.2-133.8-17.3 1.1 10.4-2.6"/><path d="m130.3 394.6 34.6 34.2m-34.6-34.2-27.7 52.3m27.7-52.3 23.4 37.5m-23.4-37.5-16.7 12.6m16.7-12.6 9.2-45m-9.2 45 51.2 6.7m-16.6 27.5-49.7-33.4m49.7 33.4-12.1-54.7m-13.3-24.5-37.8 21.3m37.8-21.3 13.3 24.5m-51.1-3.2 6.2 43.7 44.9-40.5m-51.1-3.2 16.2 54m-16.2-54 28.7 23.7m-28.7-23.7 13.8 24.3m-13.8-24.3 51.5 2.5m-51.5-2.5 9.6-30.7 41.5 33.9m-51.1-3.2-48.9-24.8m48.9 24.8 12 36.3m-12-36.3 51.1 3.2m-37.6 21.3-7.4 19.2m7.4-19.2 2.6 29.5 35-50.8m-37.6 21.3 15.1-0.9 22.5-20.4m-37.6 21.3-13.6-24.6m13.6 24.6 37.9-22m-37.9 22-4-55.2m4 55.2 36.7 22.5m-36.7-22.5-12.6 51.4m12.6-51.4 38.5 36.6-0.9-57.9m-37.6 21.3-1.6 11.7 39.2-33m-37.6 21.3 24.2-45.8m13.4 24.5 50.7-9.3m-50.7 9.3 46.5-15.7m-46.5 15.7 32.8 23.1m-32.8-23.1 55-2m-55 2-37.5 21.3m37.5-21.3-0.8 43.8m0.8-43.8 37-22.5m-37 22.5 56.6-11.6m-56.6 11.6 33.3-24.2m-33.3 24.2 28.7 27.1m48.6 61.2 51.6-31.2m-51.6 31.2-51.4-1m51.4 1-63.3 6.8m63.3-6.8-59.9 9.9m59.9-9.9-2 17.4m2-17.4 55.4 15.7m-55.4-15.7-1.5 23.4m1.5-23.4-19.3 48.7m19.3-48.7 52.1-31.5m-0.5 0.3 27.8 3.3m-27.8-3.3 16.4-31.3m-12.6 78.2 24-43.6m-24 43.6-3.3-47.2m34.4 24.1-6.8-20.9m6.8 20.9-18.9-55.1m18.9 55.1-34.9-23.9m34.9 23.9-12.7-22.2m12.7 22.2 20.8-33.7-33.7 10.8m12.9 22.9 5.3-33.3-18.2 10.4m12.9 22.9 49.2-26.5-62.1 3.6m12.9 22.9-16.7-27.2 3.8 4.3m12.9 22.9-31.1 23 18.2-45.9m12.9 22.9 41.9 25m-41.9-25 33.9 18-46.8-40.9m12.9 22.9-3.1 36.9-9.8-59.8m12.9 22.9-18.5-55.1m18.5 55.1-12.9-22.9m0.2 0.7 5.6 1.7m-5.6-1.7-5.8-32.9m5.8 32.9-21.7-1.9m27.3 3.6 7.1 20.6m-7.1-20.6-11.9-34.5m11.9 34.5 27.9-13.1m-27.9 13.1 12.3-12.7m-12.3 12.7 56.3-5.9-28.7-7.6m-27.6 13.5-9.7-6.6-17.6 3m27.3 3.6 41 38.6-13.4-52.1m-27.6 13.5 3.9 57.5m-3.9-57.5-11.4-34.6m11.4 34.6-27.3-3.6m27.3 3.6 27.6-13.5m-20.5 34.1-34.4-24.2m34.4 24.2 20.5-34.1m0.3 0.4-39.3-21.5m39.3 21.5-55.2 9.5m39.6-9.1-23.7-21.9m23.7 21.9-39.6 9.1m15.9-31-58.9-11.1 43 42.1m15.9-31 51.4-19.3m-51.4 19.3 35-28.5m-35 28.5 1.7 27.9m-1.7-27.9-15.9 31 54.9-9.9m-33.4 11.1 5.8 2.3m-5.8-2.3-5.5-32.2m5.5 32.2-21.5-1.3m54.9-9.8-39-21m39 21-33.4 11.2m33.4-11.2-15.2 0.8m15.2-0.8 12.5-40.3m-12.5 40.3-4-49.5m4 49.5-37.2 6.9m37.2-6.9 21.4 59.1m-64.4-219.6 13.9 39.1m-13.9-39.1 45.1-21.1m-45.1 21.1 54.4-26.8m-54.4 26.8-38.2-40.1m38.2 40.1 47.9-17.7-3-3.1m-44.9 20.8 30.7-49.5m-30.7 49.5-17 27m17-27 13.8 39-29.2 24.8m29.2-24.8 48.4 4.8m-48.4-4.8-44.8 31.5m44.8-31.5 33.3 18.8m-33.3-18.8 45.2 31m-45.2-31 22.1 40.4m-22.1-40.4-30.9-12m62-47.8-45 20.8m45-20.8 38.7-7.3m-38.7 7.3 9.4-6m-9.4 6 46.6-5.4m-46.6 5.4-14.3-28.7m14.3 28.7 37.4 41.6 45.8-7.2m63.9-143.4 38.1 18-63.4-8.4m25.3-9.6-25.5 8.8m25.5-8.8-26.4-20.6 1.1 30.2m25.3-9.6 14.3-30.3m-14.3 30.3-25.3 9.6m-0.2-0.8-36.3 45.8m36.3-45.8-6.7 47.4m-29.6-1.6 29 1.6m-29-1.6-28.8-29.6m28.8 29.6-38.6 49 36.5 39.8m2.1-88.8-17.5 22.5 47.1-20.9m-29.6-1.6 29.6 1.6m-29.6-1.6 36.5-45m57.4 107.6 24.8-55.4m-24.8 55.4 52.8-33.6m-52.8 33.6-51.2 8.2m51.2-8.2 54.3 21m-54.3-21 51.5-9.1m-51.5 9.1 39.9 7.6m-39.9-7.6-20.4 38.3m20.4-38.3-47.3-1.2-48.7 27.4m31.7-87.2 17 59.9m-17-59.9 6.9-46.6 39.7-39.9m-78.3 173.7 44.9-18.1m-44.9 18.1 20.9 7m-20.9-7 14.5 54.6m-14.5-54.6 11.2 53.5m-11.2-53.5-44.4-41.7m44.4 41.7 6.9 15m-6.9-15-15.2 52.4m15.2-52.4 13.7 29.4m-57.8-71.6-39 7.8"/><path d="m571.1 214.3-52.6 33.7m52.6-33.7-12.9 41.2m12.9-41.2-30.4-37.2m30.4 37.2 1.5 54.6m-105.6-12.8-24.1 25.7m24.1-25.7 51.4-8.1m-51.4 8.1-45.1 18.3m45.1-18.3-37.9 33.1m37.9-33.1 30.8 30.1-54.8-5m24-25.1 3.9-9.3m-3.9 9.3-31.1 47.5-2.5 24.1m33.6-71.6-24 25.1m-21.1-6.8 21.1 6.8m-21.1-6.8 14.7 54.4m-14.7-54.4 11.5 53.3m-4.3-38.5 13.9-8m-13.9 8 7.5 39.6m-7.5-39.6 4.3 38.5m9.6-46.5-6.5 47.4m6.5-47.4-10.1 46.2 3.7 1.4m6.4-47.6-36.1 45.3m36.1-45.3 27.8-34.4m-27.8 34.4-7.1 22.3m7.1-22.3-6.4 47.6m6.4-47.6-9.6 46.5m-26.5-1.2 29.7 2.3m-29.7-2.3 26.5 1.2m139.2-58.8-3.3-30.2m3.3 30.2-54.1-20.8m54.1 20.8-3.5 42.3m3.5-42.3-14.4-13.3m-121.6 73.2-0.8-25.2m0.8 25.2-3.2-1.1m88.3-8.4-21-5.4-2.8-27.7m71.8-47.3-11.1-62.1m11.1 62.1-26.7-46.3m26.7 46.3-10.2-50.3m10.2 50.3 1.3-24.5m-1.3 24.5 2.8 30m-2.8-30-51.3 9.2m51.3-9.2-11.6 16.7m-183.9 96.8 32.7-26m-32.7 26-24.7 28.2m24.7-28.2-41.1 19m41.1-19-17.9-48.1m17.9 48.1-33.1-34.1-62.4 6m95.5 28.1-21.1-21.9m21.1 21.9-44.2-12.6-51.3-15.5m-106.5-29.5 14.7-7.2m-14.7 7.2 17.6 56.8m-17.6-56.8 13.9 55.1m-13.9-55.1 20.6-7.3m-20.6 7.3-32.7 54.8 59.8 8.8m-27.1-63.6-7.2-49.7 21.7 42.5-14.6 7.2m14.6-7.2-0.7 62.3m0.7-62.3h6m-6 0-20.7-59.9m20 122.2-0.4 47.3m0.4-47.3 21.7 22.2m-4.2-7.3-4.1-6.7m4.1 6.7-17.4 32.5 13.2-38.9m4.2 6.4 35.8 23.9m-35.8-23.9 4.1 6.9m-4.1-6.9-50.4 8.6m50.4-8.6 49.9-15.3m-49.9 15.3-13.8-13.1 49.5 37.1m-35.7-24 5.8-2.3-1.6 9.6m-4.2-7.3-17.5-14.8 13.3 8.4m4.2 6.4-22 36.5 17.8-42.9m4.2 6.4 16.5 18.4m-16.5-18.4-4.2-6.4m4.2 6.4 35.7 24m0.1-0.1-40-30.3m40 30.3-53.7 8.5m22-25.5-8.3-13.3m8.3 13.3-22 25.5m22-25.5 31.6 17.1m-86.1-15.4 54.6-1.3m-54.6 1.3-22.8 21.1m123.1-45-54.1 8.9m54.1-8.9-14.2 39.3m-39.9-30.4-46.1 15m46.1-15-9.5-6.7m9.5 6.7 10.1 4.1m-10.1-4.1 20.8 24.8m-20.8-24.8-13.7 38.8m13.7-38.8 39.9 30.4m-86-15.4 32.4 23.8m-32.4-23.8-45.3 41.2m45.3-41.2-35.4 51.5m91.6-62.4-23.8 34.7m23.8-34.7 29.8 26.3m-53.6 8.4 17.9-32.5 4.2 7.4m-22.1 25.1-54.9-2.7m54.9 2.7-33.6 20.7m33.6-20.7 4.1-45.6 18 20.5m-22.1 25.1-20.7 31.6m20.7-31.6-31.9 34.8m31.9-34.8-4.1 4 57.7-12.4m-53.6 8.4 34.5-14.1 19.1 5.7m-53.6 8.4 53.6-8.4m-53.6 8.4 22.1-25.1m-22.1 25.1-55.3-2.7m21.7 23.4-44.1-3.3m44.1 3.3-34.2 7m34.2-7-21.7-23.4m34.6 34.3-57-14.2m57 14.2-47.1-3.9m35.9 7.1-45.8-17.4m45.8 17.4-35.9-7.1m160.9-100.6 29.3-24.7m-29.3 24.7-25.3 25.1-45.7 22.7m71-47.8-15.6 6.6-23.9 57.9m39.5-64.5-1.7-36.8m-37.8 101.3 58.4 11.1m-58.4-11.1 42.5 42.3m-42.5-42.3-31.5-16.7-8.5-13.8m8.5 13.8-26.3 29.1m26.3-29.1 12.3 11m-112.1 31.5-50.1 18.5-37.2-33.4m87.3 14.9 10.3 10.3-60.3 8m50-18.3-59.2 11.4-28.1-26.3m87.3 14.9 22.8-20-12.9 30.3m-9.9-10.3-6.3-43.8m6.3 43.8 7.6-19.4 2.3 29.7m-9.9-10.3-5.2 32.2m5.2-32.2 5.7-7.5 4.2 17.8m-9.9-10.3-50 18.3m50-18.3 9.9 10.3m-9.9-10.3-59.3 11.5m54.1 20.7-44.8-13.9m44.8 13.9 15.1-21.9m-15.1 21.9-54.1-20.7m-28-26.4-20.2-22.7m20.2 22.7 32.1-53.7m-32.1 53.7-20-22.5m20 22.5 37.3 33.2m-37.3-33.2 28 26.4m-48-48.9 52.1-31.1m-52.1 31.1 41-44.4m16.3 100.1-9.1-6.8m9.1 6.8 55.7-25.7m-55.7 25.7 59.9-8m-59.9 8-9.3-6.8m69.2-1.2-16.3-54.1m28.8 23.7-22.4 20m22.4-20-12.5 30.3m12.5-30.3-28.8-23.8m28.8 23.8-14.8 0.6m14.8-0.6-19.1-54.3"/></g><defs><clipPath id="a"><rect width="572.9" height="554.4" fill="#fff"/></clipPath></defs></svg>
