<svg version="1.1" viewBox="0 0 473 473.4" xmlns="http://www.w3.org/2000/svg"><defs><style>.st0,.st1{fill:none}.st1{stroke:#6d2077;stroke-linecap:round;stroke-miterlimit:10}.st2{clip-path:url(#a)}</style><clipPath id="a"><circle class="st0" cx="236.5" cy="236.7" r="236.6"/></clipPath></defs><g class="st2" clip-path="url(#a)"><path class="st1" d="m518.8 207.1-25.2-6.6-8.4-2-73.1-15.3-12.9-2.4-8.6-1.4-12.9-1.8-4.3-0.5-8.6-0.8-8.6-0.6-34.4-1.6-12.9-0.9-60.2-2.8h-4.3l-4.3-0.2h-8.7l-12.9 0.6-12.9 0.9-17.2 1.6-4.3 0.5-8.6 1.2-4.3 0.7-4.3 0.8-4.3 0.9-4.2 1-4.2 1.1-4.2 1.3-4.1 1.3-4.1 1.5-4 1.6-8 3.4-7.8 3.6-3.9 1.9-7.8 4-7.6 4.2-3.7 2.2-3.7 2.3-3.6 2.4-3.5 2.4-3.5 2.5-3.5 2.6-3.4 2.7-3.3 2.8-3.2 2.8-3.2 2.9-3.2 3-12.4 12.4-2.7 3.2-3.1 3.1-6.4 6-12.8 11.6-3.2 3-3.1 3.1-2.9 3.2-2.8 3.4-2.5 3.5-2.2 3.7-1.9 3.9-1.6 4m506.8-117.3-4.2-1-4.3-1-8.6-1.8-8.6-1.6-4.3-0.7-60.2-8.4-12.9-1.5-8.6-0.8-8.6-0.6-12.9-0.6h-4.3-4.3-4.3l-12.9 0.6-8.6 0.6-17.2 1.6-8.6 0.6-30.1 1.4-17.2 1.2-30.1 1.4-4.3 0.3-8.6 0.8-4.3 0.5-8.6 1.2-12.9 2.1-8.6 1.6-12.9 2.7-4.2 1-4.2 1.2-4.2 1.3-4.1 1.4-4 1.5-4 1.7-3.9 1.8-3.9 1.9-3.9 2.1-3.8 2.1-3.7 2.2-3.7 2.3-7.2 4.8-3.5 2.4-7 5-7 5.2-3.4 2.7-3.4 2.8-3.3 2.8-3.2 2.8-3.2 2.9-3.2 3-3.1 3.1-2.9 3.2-2.8 3.2-2.8 3.3-2.8 3.4-2.7 3.4-10.4 14-2.5 3.8-2.7 3.4-2.8 3.4-2.8 3.3-5.8 6.4-3 3.2-6 6.2-3 3.2-2.9 3.2-2.8 3.3-2.6 3.5-2.4 3.6-2.1 3.8-1.8 3.9-1.5 4.1m487.6-174.1-4.3-0.8-4.3-0.7-17.2-2.4-8.6-1-12.9-1.2-8.6-0.6-34.4-1.6h-4.3-4.3-4.3l-12.9 0.6-8.6 0.6-4.3 0.4-8.6 1-8.6 1.2-4.3 0.7-4.3 0.8-30.1 6.3-4.3 0.8-12.9 2.1-17.2 2.4-17.2 2.8-30.1 4.2-4.3 0.7-4.3 0.8-8.6 1.8-4.3 1-4.2 1-4.2 1.1-8.4 2.4-8.4 2.6-4.1 1.3-4.1 1.4-4.1 1.5-4 1.7-3.9 1.7-3.9 1.9-3.9 2-3.8 2.1-3.7 2.3-3.6 2.4-3.5 2.5-3.5 2.6-3.4 2.7-3.4 2.8-3.3 2.8-3.2 2.8-9.6 8.7-9.6 9-6.2 6.2-3 3.2-2.9 3.2-2.8 3.2-2.8 3.3-2.7 3.4-2.6 3.5-2.5 3.5-2.4 3.5-2.4 3.6-2.3 3.6-4.6 7.4-4.4 7.4-4.6 7.4-4.8 7.2-2.4 3.5-2.5 3.5-5.2 7-5.4 6.8-2.6 3.5-2.5 3.5-2.4 3.5-2.3 3.7-2.1 3.8-1.9 3.9-1.7 4-1.4 4.1m464.6-227.3-4.3-0.5-8.6-0.8-4.3-0.3-12.9-0.6h-4.3-4.3-4.3l-43 2-4.3 0.3-4.3 0.4-4.3 0.5-8.6 1.2-4.3 0.7-4.3 0.8-12.9 2.7-4.2 1-4.2 1.1-4.2 1.2-8.2 2.6-8.2 2.8-4.1 1.5-8.2 2.8-4.1 1.3-4.2 1.3-4.2 1.2-8.4 2.2-4.2 1-12.9 3-29.4 7-8.6 2-8.4 2-4.2 1.1-4.2 1.2-4.2 1.3-4.1 1.3-4.1 1.4-4.1 1.5-4 1.5-4 1.6-4 1.4-4 1.7-3.9 1.7-3.9 1.8-3.9 1.9-3.9 2-3.8 2.1-3.7 2.2-3.7 2.3-3.6 2.4-3.5 2.5-3.4 2.7-3.3 2.8-3.2 2.8-3.2 2.9-3.1 3-3.1 3.1-6 6.4-14.5 16-2.8 3.2-8.4 9.9-2.7 3.4-2.7 3.5-2.6 3.5-2.5 3.5-4.8 7.2-2.3 3.7-2.2 3.7-4.2 7.6-2.1 3.9-4 7.8-7.6 15.6-4 7.8-2.1 3.9-14.7 26.6-4 7.8-1.8 3.9-1.7 4-1.4 4.1-1.3 4.2m435.7-278.3h-4.3-4.3-4.3l-8.6 0.4-4.3 0.3-4.3 0.4-8.6 1-8.6 1.2-12.9 1.5-8.6 0.8-8.6 1-4.3 0.6-4.3 0.7-4.3 0.8-4.3 0.9-4.2 1-4.2 1.1-4.2 1.3-4.1 1.3-4.1 1.4-4.1 1.5-4 1.6-4 1.7-3.9 1.7-7.8 3.6-15.6 7.6-7.8 3.6-4 1.7-4 1.6-4.1 1.5-4.1 1.4-8.2 2.6-8.4 2.6-16.4 5.2-28.7 9.8-4.1 1.5-4 1.6-4 1.7-3.9 1.7-3.9 1.8-3.9 1.9-3.9 2-3.9 2.1-7.6 4.2-3.7 2.2-3.7 2.3-7.2 4.8-3.5 2.5-3.5 2.6-3.4 2.8-3.3 2.8-3.2 2.9-3.1 3-3 3.1-2.9 3.2-2.8 3.2-5.6 6.6-2.8 3.4-16.2 20.4-2.4 3.5-2.7 3.5-5.2 7-5 7-2.4 3.5-4.8 7.2-2.3 3.7-2.2 3.8-2.1 3.8-2.1 3.9-2 3.9-1.9 3.9-1.8 3.9-3.4 8-3.2 8-7.5 20.5-1.5 4-3.2 8-10.2 24-1.6 4-1.5 4.1-1.3 4.1-1.2 4.2-1 4.2m403.9-324.3-4.3 0.4-4.3 0.5-4.3 0.6-4.3 0.7-4.3 0.8-12.9 2.7-8.6 1.6-17.2 2.8-4.3 0.8-8.6 1.8-4.2 1.1-4.2 1.3-4.1 1.3-4.1 1.5-4 1.7-3.9 1.7-3.9 1.8-7.8 4-11.4 6.3-7.4 4.4-14.8 9.2-3.7 2.2-3.8 2.1-3.8 2-3.9 2-3.9 1.8-3.9 1.7-4 1.7-20 8-12 5.1-7.8 3.4-11.7 5.4-7.8 3.8-3.9 2-3.8 2-3.8 2.2-3.7 2.3-7.2 4.8-7 5-3.5 2.6-3.4 2.7-3.4 2.8-3.3 2.8-3.2 2.8-3.2 2.9-3.1 3-3 3.1-2.9 3.2-2.8 3.2-2.8 3.3-2.7 3.4-5.2 7-2.9 3.7-2.5 3.5-26.4 38.5-7.2 10.8-2.3 3.6-2.3 3.7-2.2 3.7-4.2 7.6-2 3.9-1.9 3.9-1.7 3.9-1.7 4-1.6 4-1.5 4.1-1.4 4.1-1.3 4.1-1.3 4.2-2.4 8.4-5.5 21-9.6 33.6-2.2 8.4-1 4.2-0.9 4.3-0.8 4.3m369.2-365.9-4.3 0.9-4.2 1-12.6 3.3-8.4 2-8.6 1.8-4.3 1-4.2 1-4.2 1.2-4.2 1.3-4.1 1.4-4 1.6-3.9 1.7-3.9 1.9-3.9 2.1-3.8 2.1-3.7 2.2-3.7 2.3-7.2 4.8-10.5 7.2-28 20-7.2 4.8-3.7 2.2-3.8 2.1-3.9 2.1-3.9 2-3.9 1.9-7.8 3.6-7.8 3.8-7.8 4-3.9 2.1-11.4 6.3-7.4 4.4-3.7 2.3-7.2 4.8-3.5 2.5-3.5 2.6-3.4 2.7-3.3 2.8-3.2 2.8-3.2 2.9-3.2 3-6.2 6.2-3 3.2-2.9 3.2-2.8 3.2-2.8 3.3-2.7 3.4-2.6 3.5-5 7-4.8 7.2-4.6 7.4-11 18.5-9.2 14.8-2.3 3.6-9.6 14.4-2.3 3.6-4.6 7.4-2.2 3.7-4.2 7.6-2 3.9-1.9 3.9-1.8 3.9-1.7 4-1.6 4-1.5 4.1-1.6 4.2-1.3 4.1-1.2 4.2-1.1 4.2-1 4.2-1 4.3-2.7 12.9-2.4 12.9-4.9 30.1-1.6 8.6-1.4 8.6-1.8 12.9m332.7-403.7-12.3 3.9-12.6 3.9-4.1 1.3-4.1 1.4-4 1.6-3.9 1.7-3.9 2-3.8 2.1-3.7 2.3-3.5 2.4-3.5 2.5-3.5 2.7-3.4 2.7-3.4 2.8-13.2 11.2-13.6 11.2-16.5 14-3.4 2.8-3.4 2.7-3.5 2.6-3.5 2.5-3.6 2.4-3.7 2.3-3.7 2.2-19 10.5-3.7 2.2-3.7 2.3-3.8 2.4-3.6 2.4-3.5 2.4-7 5-3.5 2.6-3.4 2.7-6.6 5.6-3.2 2.9-3.2 3-3 3.1-2.9 3.2-2.8 3.2-2.8 3.3-2.8 3.4-2.7 3.4-2.6 3.5-2.5 3.5-2.4 3.5-4.8 7.2-2.3 3.7-2.2 3.7-4.2 7.6-16 31.2-2.1 3.9-2 3.8-6.3 11.4-6.6 11.1-4.6 7.4-6.6 11.1-4.2 7.6-2.1 3.9-2 3.9-1.8 3.9-1.7 3.9-1.7 4-1.6 4-1.4 4.1-1.3 4.1-1.3 4.2-1.2 4.2-1.1 4.2-1 4.3-1.8 8.6-0.8 4.3-0.7 4.3-1.2 8.6-1 8.6-0.8 8.6-1.8 25.8-0.8 8.6-0.9 12.9-0.4 8.6m293.7-437.3-4.1 1.5-4 1.5-4 1.6-3.9 1.7-3.9 1.9-3.8 2.1-3.7 2.3-3.5 2.4-3.5 2.6-3.3 2.8-3.2 2.9-3.2 3-18.6 18.6-3.1 3-9.6 9-3.2 2.9-19.2 18-6.4 5.8-3.3 2.8-3.4 2.8-3.5 2.6-3.5 2.5-3.5 2.4-18 12-3.5 2.4-3.5 2.5-3.5 2.6-3.4 2.7-3.4 2.8-3.3 2.8-3.2 2.9-3.2 3-3.1 3.1-3 3.2-2.9 3.2-2.8 3.3-2.7 3.4-2.6 3.5-2.4 3.5-2.4 3.6-2.3 3.7-2.2 3.7-2.1 3.8-2 3.8-2.1 3.9-2 3.9-3.8 7.8-1.8 3.9-3.4 7.8-11.9 28-1.7 3.9-3.6 7.8-1.9 3.9-6 11.7-18.9 34.2-2 3.9-1.9 3.9-1.8 3.9-1.7 3.9-1.7 4-1.6 4-1.4 4.1-1.3 4.1-1.3 4.2-1.2 4.2-1.1 4.2-1 4.2-1.8 8.6-0.8 4.3-0.7 4.3-1.2 8.6-0.5 4.3-0.3 4.3-0.3 4.1-0.4 8.6v4.3l-0.2 4.3v43.4l0.2 4.3v4.3l0.2 4.3m252.9-465.8-3.8 2.1-3.7 2.3-3.5 2.5-3.4 2.7-3.2 2.9-3.1 3-3 3.2-2.9 3.2-19.6 23.1-2.8 3.2-29 32-6 6.4-3.1 3.1-3.2 3-3.2 2.9-6.6 5.6-3.4 2.7-3.5 2.7-10.5 7.8-3.4 2.7-3.4 2.8-3.3 2.8-3.2 2.9-3.2 3-3.1 3.1-3 3.2-2.8 3.2-2.8 3.3-2.7 3.4-2.5 3.5-2.4 3.6-2.3 3.7-2.1 3.8-2.1 3.9-1.9 3.9-1.8 3.9-1.7 3.9-1.7 4-3.2 8-1.5 4.1-4.2 12.3-9.1 28.7-2.8 8.2-1.5 4.1-1.5 4-1.6 4-1.7 4-1.7 3.9-3.6 7.8-1.9 3.9-4 7.8-6.3 11.7-6 11.7-1.9 3.9-1.8 3.9-1.7 3.9-1.7 4-1.6 4-1.5 4.1-1.4 4.1-1.3 4.1-1.2 4.2-1.1 4.2-1 4.2-2.7 12.9-0.8 4.3-0.7 4.3-1.2 8.6-0.5 4.3-0.4 4.3-0.3 4.3-0.2 4.3v4.3 4.3 8.7l1 21.5 1.2 17.2 1.6 17.2 1 8.6m209.2-490.4-3 3.2-2.8 3.3-2.7 3.4-2.6 3.5-5 7-2.4 3.5-10 14-26 35-5.4 6.8-2.8 3.4-5.6 6.6-2.9 3.2-3 3.2-3 3.1-3.1 3.1-3.2 3-16 14.5-3.2 3-3.1 3-3 3.2-2.9 3.2-2.8 3.3-2.7 3.4-2.5 3.5-2.4 3.6-2.3 3.7-2.1 3.8-2 3.9-1.8 3.9-1.7 4-1.6 4-1.4 4.1-1.3 4.1-1.3 4.2-1.2 4.2-2.2 8.4-2 8.4-1 4.3-2.7 12.9-2 8.6-2 8.4-2.2 8.4-2.4 8.4-1.3 4.2-1.3 4.1-1.4 4.1-1.5 4.1-1.6 4-3.4 8-1.7 3.9-12.6 27.3-1.7 3.9-3.4 8-1.6 4-1.5 4.1-1.3 4.1-1.3 4.2-1.2 4.2-1.1 3.9-1 4.2-1.8 8.6-0.8 4.3-1.4 8.6-1.8 12.9-0.5 4.3-0.4 4.3-0.3 4.3-0.4 8.6v4.3 4.3 4.3l0.6 12.9 0.3 4.3 0.4 4.3 1 8.6 3 21.5 2.1 12.9 2.4 12.9m164.1-510.8-6 11.7-2.1 3.9-6.3 11.4-8.8 15.2-4.2 7.6-2.2 3.8-4.4 7.4-2.3 3.7-7.2 10.8-2.4 3.5-2.5 3.5-5.2 7-2.7 3.4-2.8 3.4-5.6 6.6-14.5 16-2.8 3.2-2.8 3.3-2.7 3.4-2.6 3.5-2.4 3.2-2.3 3.7-2.1 3.8-2 3.9-1.8 3.9-1.7 4-1.5 4-1.3 4.1-1.2 4.2-1.1 4.2-1.8 8.6-0.8 4.3-1.4 8.6-4.2 30.1-1.4 8.6-1.6 8.6-2.7 12.9-1 4.3-1 4.2-1.1 4.2-2.4 8.4-1.3 4.2-1.3 4.1-2.8 8.2-1.5 4.1-1.5 4-6.4 16-1.5 4-1.5 4.1-2.8 8.2-1.3 4.1-1.3 4.2-1.2 4.2-1.1 4.2-1 4.2-1.8 8.6-0.8 4.3-0.7 4.3-1.2 8.6-1 8.6-1.2 12.9-0.3 4.3-0.6 12.9v4.3 4.3 4.3l0.6 12.9 0.3 4.3 0.4 4.3 0.5 4.3 1.2 8.6 1.4 8.6 0.8 4.3 3.6 17.2 1 4.3 2 8.4 2.2 8.4 1.2 4.2m117.1-526.8-1.5 4.1-1.5 4-1.6 4-11.9 28-1.7 3.9-1.8 3.9-1.9 3.9-4 7.8-2 3.8-4.2 7.6-4.4 7.4-4.6 7.4-7.2 10.8-4.8 7-2.5 3.5-4.8 7-2.4 3.6-2.3 3.7-2.2 3.7-2.1 3.8-2 3.9-1.8 3.9-1.7 4-1.5 4.1-1.3 4.1-1.2 4.2-1 4.2-0.9 4.3-0.8 4.3-1.2 8.6-0.5 4.3-0.4 4.3-2.1 30.1-0.8 8.6-1 8.6-1.8 12.9-1.4 8.6-1.6 8.6-2.7 12.9-1 4.3-1 4.2-3.3 12.6-6 21-3.3 12.6-1 4.2-1 4.3-1.8 8.6-1.6 8.6-0.7 4.3-1.2 8.6-0.5 4.3-0.8 8.6-0.3 4.3-1 21.5v4.3l-0.2 4.3v8.7l0.8 17.2 0.3 4.3 0.4 4.3 0.5 4.3 1.2 8.6 0.7 4.3 0.8 4.3 2.7 12.9 1 4.2 2.2 8.4 2.4 8.4 2.6 8.4 5.2 16.4 1.4 4.1m68.2-537.5-6 21-3.9 12.6-1.3 4.1-2.8 8.2-1.5 4.1-3.2 8-5.1 12-1.7 3.9-3.6 7.8-3.8 7.8-6 11.7-3.8 7.8-1.8 3.9-1.7 4-1.6 4-1.5 4.1-1.3 4.1-1.3 4.2-1.1 4.2-0.9 4.3-0.8 4.3-0.7 4.3-0.6 4.3-0.5 4.3-0.4 4.3-0.3 4.3-0.6 12.9v4.3l-0.2 4.3v4.3l-1 21.5-0.6 8.6-1.2 12.9-1.5 12.9-4.8 34.4-3.5 21.5-4.2 30.1-1.5 12.9-0.8 8.6-0.6 8.6-0.8 17.2v4.3l-0.2 4.3v8.7l1 21.5 0.3 4.3 0.8 8.6 0.5 4.3 1.2 8.6 0.7 4.3 1.6 8.6 1.8 8.6 1 4.2 2.2 8.4 1.2 4.2 2.6 8.4 2.6 8.2 2.8 8.2 4.5 12.3 1.5 4 6.4 16m16.4-544.2-1 4.2-3.6 17.2-1.6 8.6-4.5 21.5-2 8.4-1.1 4.2-2.4 8.4-2.6 8.4-2.6 8.2-2.6 8.4-2.4 8.4-1.1 4.2-1.8 8.6-0.8 4.3-0.7 4.3-0.6 4.3-0.5 4.3-0.4 4.3-0.3 4.3-0.4 8.6v4.3l-0.2 4.3-0.2 4.2v17.4l-0.2 4.3v4.3l-5 107.5v4.3l-0.2 4.3v4.3l-0.2 4.3v4.3 4.3 26l0.2 4.3v4.3l0.2 4.3v4.3l1.4 30.1 0.3 4.3 0.8 8.6 0.5 4.3 1.8 12.9 0.7 4.3 0.8 4.3 2.7 12.9 1 4.2 1.1 4.2 1.2 4.2 1.3 4.2 2.6 8.2 1.4 4.1 3 8.2 3.2 8 8.5 20 11.9 27.3 1.8 3.9m-37.2-545-0.6 4.3-1 8.6-0.4 4.3-1.5 21.5-0.8 8.6-1 8.6-0.6 4.1-4.2 30.1-1 8.6-0.4 4.3-0.6 8.6-0.6 12.9v4.3l-0.2 4.3v43.4l-0.2 4.3v4.3l-0.2 4.3v17.4l1 21.5 1.2 17.2 2.8 30.1 3 25.8 6 43 4 34.4 3 21.5 0.7 4.3 1.6 8.6 1.8 8.6 1 4.2 2.2 8.4 1.2 4.2 1.3 4.2 1.3 4.1 2.8 8.2 1.5 4.1 3.2 8 3.4 8 3.4 7.8 5.4 11.7 15.2 31.2 10 19.5m-93-540.7v8.7l2.8 60.2v4.3l0.2 4.3v4.3l2 43v4.3l0.2 4.3v4.3l0.2 4.3v4.3l0.2 4.3v4.3l0.2 4.3v4.3l0.6 12.9 0.3 4.3 0.8 8.6 0.5 4.3 1.8 12.9 0.7 4.3 1.6 8.6 6.3 30.1 2 8.6 14 58.8 2 8.6 9 43 2 8.6 2 8.4 2.2 8.4 2.4 8.4 2.6 8.4 2.6 8.2 1.4 4.1 3 8.2 3.2 8 3.4 8 3.4 7.8 3.6 7.8 3.8 7.8 8 15.6 4.2 7.8 2.1 3.8 2 3.8 6.3 11.4 2 3.8 12.6 22.8m-146.9-531.9 1.2 8.6 2.8 17.2 3.2 17.2 3.5 21.5 3 21.5 1.5 12.9 1.2 12.9 0.9 12.9 1.2 12.9 0.5 4.3 1.8 12.9 0.7 4.3 0.8 4.3 2.7 12.9 1 4.2 2.2 8.4 1.2 4.2 2.6 8.4 2.6 8.2 4.2 12.3 54 147.6 1.5 4 6.4 16 6.8 16 3.4 7.8 3.6 7.8 5.7 11.7 6 11.7 2.1 3.9 2 3.9 14.7 26.6 4.4 7.6 15.4 25.9 9.2 14.8m-201.7-516.7 2.6 8.4 12 42 2.2 8.4 2 8.4 1 4.3 8.1 38.7 2 8.4 2.2 8.4 2.4 8.4 1.3 4.2 2.6 8.2 2.8 8.2 3 8.2 3.2 8 5.1 12 3.4 7.8 3.6 7.8 11.4 23.4 34 66.3 19 39 12 23.4 4.2 7.8 6.3 11.4 2.2 3.8 2.2 3.7 6.9 11.1 16.8 25.2 6.9 11.1 4.4 7.4 2.2 3.8 18.9 34.2 2.2 3.8 6.6 11.1 9.2 14.8 2.3 3.6 2.4 3.6m-256.1-494.8 5.4 11.7 11.9 27.3 6.8 16 14.4 36 8.5 20 3.4 7.8 5.4 11.7 3.8 7.8 6 11.7 2.1 3.9 8.4 15.2 2.2 3.8 4.4 7.4 11.5 18.5 4.6 7.2 19.2 28.8 6.9 10.8 62.1 99.9 2.3 3.6 26.4 39.6 4.8 7 7.5 10.5 5.2 7 2.7 3.4 2.8 3.4 2.8 3.3 2.8 3.2 2.9 3.2 6 6.4 9.3 9.3 3 3.2 2.8 3.4 2.2 3.8 1.3 4.1 0.6 4.3 0.3 4.3 0.4 4.3 0.8 4.3 1.3 4.2m-300.1-465.1 21.6 32.4 2.3 3.6 9.2 14.8 26.4 44.4 9.2 14.8 14.4 21.6 4.8 7 10 14 20.8 28 18.9 24.5 83.2 112 5.4 7 24.3 30.6 33.6 40.8 2.8 3.3 19.6 23.8 13.5 17 5.6 6.8 5.4 6.8m-354.1-434.5 33.6 38.4 61.6 72.6 11.2 12.8 194.3 214.4 72 76.8m-393.7-394 32 29 16 14 66 56 16 14 211.2 191.4 73.6 69m-433.5-350.3 28 20.8 21 15 7 4.8 10.8 7.2 3.6 2.3 7.4 4.6 14.8 8.8 3.8 2.2 18.5 11 11.1 6.9 18 12 10.5 7.2 28 20 35 26 91 65 31.5 23.4 7 5.4 30.6 24.3 74.8 61.6m-468.6-303.6 40.7 25.3 11.1 6.6 11.4 6.3 3.9 2.1 3.9 2 3.9 1.9 7.8 3.6 3.9 1.7 8 3.4 24 9.6 12 5.1 3.9 1.7 7.8 3.6 11.7 5.7 7.8 4 7.8 4.2 3.8 2 91.2 50.4 3.8 2 11.4 6.3 3.8 2 11.4 6.3 3.8 2 15.2 8.4 3.8 2 11.4 6.3 3.8 2 11.4 6.3 3.8 2 19 10.5 7.4 4.4 3.7 2.3 3.6 2.3 10.8 7.2 10.5 7.2 17.5 12.5 52.5 36 10.8 7.2m-497.5-247.9 3.9 2 11.7 6.3 3.9 2 3.9 2.1 19.5 10 11.7 5.7 7.8 3.6 3.9 1.7 4 1.7 4 1.6 4 1.5 4.1 1.4 4.1 1.3 4.2 1.3 4.2 1.2 8.4 2.2 21 5 8.4 2.2 8.4 2.4 4.2 1.3 8.2 2.6 4.1 1.4 4.1 1.5 4 1.5 8 3.2 16 6.8 62.4 27.2 32 13.6 28 11.2 40 17 11.7 5.1 54.6 25.2 27.3 13.3 11.7 6 31.2 15.2 15.6 7.2 3.9 1.7 4 1.7m-522.7-190.2 19.5 9 15.6 6.8 20 8.5 8 3.2 4 1.5 4.1 1.5 4.1 1.4 4.1 1.3 4.2 1.3 4.2 1.2 4.2 1 4.3 0.9 4.3 0.8 4.3 0.7 8.6 1.2 4.3 0.5 17.2 1.6 8.6 1 12.9 1.8 4.3 0.7 4.3 0.8 12.9 2.7 4.2 1 8.4 2.2 4.2 1.2 12.6 3.9 24.6 7.8 32.8 11.2 20.5 6.5 12.6 3.9 16.8 4.8 63 16.5 16.8 4.8 12.6 3.9 20.5 6.5 20.5 7 16.4 5.2 8.4 2.6 4.2 1.2 8.4 2.2 8.4 2 4.3 1 38.7 8.1m-544.7-124.2 32.8 12 32.8 11.2 12.3 3.9 4.2 1.3 4.2 1.2 4.2 1.1 4.2 1 4.3 0.9 4.3 0.8 4.3 0.7 4.3 0.6 4.3 0.4 4.3 0.3 4.3 0.2h4.3 4.3 4.3l21.5-1h4.3l4.3-0.2h8.7l8.6 0.4 4.3 0.3 8.6 0.8 4.3 0.5 12.9 1.8 8.6 1.4 12.9 2.4 34.4 7.2 8.6 2 38.7 8.1 12.9 2.4 8.6 1.4 30.1 4.2 17.2 2 43 6 34.4 5.6 17.2 2.4 4.3 0.5 4.3 0.4 8.6 0.6 17.2 0.8 8.6 0.6 4.3 0.4 4.3 0.5 4.3 0.6 4.3 0.7 4.3 0.8 4.3 0.9m-555.2-60.7 8.4 2 67.2 17.6 4.2 1 4.3 1 12.9 2.7 4.3 0.8 4.3 0.7 4.3 0.6 4.3 0.5 4.3 0.4 8.6 0.4h8.7l8.6-0.6 4.3-0.4 4.3-0.5 30.1-4.2 4.3-0.5 8.6-0.8 4.3-0.3 8.6-0.4h4.3 4.3 4.3l12.9 0.6 12.9 0.9 21.5 2 30.1 3.5 30.1 2.8 8.6 0.6 17.2 0.8h4.3l4.3 0.2h13l4.3-0.2h4.3l103.2-4.8h4.3l4.3-0.2h4.3 4.3 8.7l8.6 0.4 4.3 0.3 4.3 0.4 4.3 0.5 8.6 1.2 8.6 1.4m-554.6-0.8 12.9 1.8 12.9 2.1 17.2 3.2 25.8 5.4 8.6 1.6 8.6 1.4 8.6 1.2 8.6 1 4.3 0.3 8.6 0.4h4.3 4.3 4.3l8.6-0.6 4.3-0.4 8.6-1.2 4.3-0.7 4.3-0.8 12.9-2.7 17.2-4 12.9-2.7 4.3-0.8 4.3-0.7 8.6-1.2 4.3-0.5 4.3-0.4 8.6-0.6 12.9-0.6h4.3l4.3-0.2h30.4l4.3-0.2h4.3l51.6-2.4 8.6-0.6 8.6-0.8 8.6-1 12.9-1.8 4.3-0.7 8.6-1.6 8.6-1.8 4.3-1 4.2-1 4.2-1.1 29.4-8.4 4.2-1.1 4.2-1 8.6-1.8 4.3-0.8 8.6-1.2 4.3-0.5 4.3-0.4 4.3-0.3 8.6-0.4h4.3l4.3-0.2h13l12.9 0.6 8.6 0.6 8.6 0.8m-552.5 57.6 21.5 1 12.9 0.9 8.6 0.8 38.7 4.5 4.3 0.4 8.6 0.6 8.6 0.4h4.3 4.3 4.3l8.6-0.6 4.3-0.5 8.6-1.2 4.3-0.8 8.6-1.8 4.2-1 4.2-1.1 4.2-1.2 8.4-2.6 28.7-9.1 4.2-1.3 4.2-1.2 8.4-2.2 4.3-1 8.6-1.8 4.3-0.8 4.3-0.7 12.9-1.8 12.9-1.5 12.9-1.2 12.9-1.5 34.4-4.8 12.9-2.1 8.6-1.6 12.9-2.7 8.4-2 4.2-1.1 8.4-2.4 4.2-1.3 4.1-1.3 4.1-1.4 4.1-1.5 4-1.6 4-1.7 3.9-1.7 3.9-1.8 3.9-1.9 7.8-4 3.9-2.1 7.8-4 3.9-1.9 3.9-1.8 3.9-1.7 4-1.6 4.1-1.4 4.1-1.3 4.2-1.2 4.3-1 4.3-0.9 4.3-0.7 8.6-1.2 4.3-0.5 8.6-0.8 34.4-2.4 12.9-0.6m-540.8 115.6 21.5-1h4.3l4.3-0.2h4.3l4.3-0.2h4.7l4.3-0.2h4.3l4.3-0.2h4.3l4.3-0.2h4.3l4.3-0.2h4.3l4.3-0.2h4.3l21.5-1 4.3-0.3 4.3-0.4 4.3-0.5 4.3-0.6 4.3-0.7 4.3-0.8 4.3-0.9 4.2-1 4.2-1.1 4.2-1.3 4.1-1.3 4.1-1.4 4.1-1.5 4-1.6 12-5.1 15.6-6.8 8-3.4 8-3.2 4.1-1.5 4.1-1.4 4.1-1.3 4.2-1.3 4.2-1.2 4.2-1.1 4.2-1 4.3-1 55.9-11.7 8.6-2 12.6-3 8.4-2.2 4.2-1.2 4.2-1.3 8.2-2.6 4.1-1.4 4.1-1.5 4-1.6 4-1.7 3.9-1.7 3.9-1.8 3.9-1.9 3.9-2 3.8-2.1 3.7-2.2 3.7-2.3 3.6-2.4 3.5-2.4 3.5-2.5 17.5-13 3.5-2.5 3.5-2.4 3.6-2.4 3.7-2.3 3.8-2.1 3.9-2 3.9-1.8 4-1.7 4-1.6 4.1-1.4 4.1-1.3 4.2-1.2 4.2-1.1 4.2-1 17.2-3.6 8.6-1.6 4.3-0.7 17.2-2.4 4.3-0.5 8.6-0.8m-524.2 172.7 43-5 30.1-4.2 17.2-2.8 21.5-4 12.9-2.7 4.2-1 4.2-1.1 4.2-1.2 4.2-1.3 4.1-1.3 4.1-1.4 4-1.6 4-1.7 3.9-1.7 3.9-1.8 3.9-1.9 7.8-4 3.9-2.1 3.8-2 15.2-8.4 11.7-6 3.9-1.9 3.9-1.8 8-3.4 4-1.6 4.1-1.5 4.1-1.4 4.1-1.3 8.4-2.6 16.8-4.8 8.4-2.6 16.4-5.2 24.6-8.4 4.1-1.5 8-3.2 4-1.7 3.9-1.7 3.9-1.9 3.9-2 7.6-4.2 3.7-2.3 3.6-2.4 3.5-2.5 3.4-2.7 3.3-2.8 3.2-2.9 3.1-3.1 3-3.2 5.8-6.4 2.8-3.2 5.8-6.4 3-3.2 3.1-3 3.2-2.9 3.3-2.8 3.4-2.7 3.5-2.5 3.6-2.4 3.7-2.3 3.7-2.2 3.8-2.1 3.9-2.1 3.9-2 7.8-3.8 3.9-1.8 3.9-1.7 4-1.7 4-1.6 4.1-1.4 4.1-1.3 4.2-1.2 4.2-1 4.3-0.9 4.3-0.7 4.3-0.6 4.3-0.5 4.3-0.3 8.6-0.4h4.3m-501.2 224.6 60.2-12.6 8.4-2 4.2-1.1 4.2-1.2 8.4-2.6 8.2-2.6 8.2-2.8 16.4-6 4-1.5 12-4.8 8-3.4 3.9-1.7 3.9-1.8 3.9-1.9 3.9-2 3.9-2.1 7.6-4.2 3.7-2.2 7.4-4.6 25.2-16.8 3.7-2.3 3.7-2.2 3.8-2.2 3.8-2.1 3.9-2.1 3.9-2 3.9-1.9 3.9-1.8 3.9-1.7 8-3.4 12-4.8 20-8.5 19.5-8.5 7.8-3.6 7.8-3.8 3.9-2 3.8-2 3.8-2.1 3.7-2.2 3.6-2.3 3.5-2.4 3.5-2.6 3.4-2.7 3.2-2.8 3.1-3.1 2.9-3.2 2.8-3.3 2.6-3.5 2.4-3.5 2.3-3.7 6.6-11.1 2.3-3.7 2.4-3.6 2.5-3.5 2.8-3.4 2.9-3.2 3.1-3.1 3.2-2.9 3.3-2.8 3.4-2.7 3.5-2.6 10.5-7.5 7-4.8 7.2-4.8 3.7-2.3 3.8-2.2 3.9-2 3.9-1.8 4-1.6 4.1-1.3 4.2-1.1 4.3-0.9 4.3-0.7 4.3-0.6 4.3-0.4 8.6-0.4h4.3 4.3m-472.9 271.7 4.3-0.9 4.2-1 4.2-1.1 4.2-1.2 8.4-2.6 12.3-3.9 20.5-7 8.2-3 8-3.2 8-3.4 3.9-1.8 3.9-1.9 7.8-4 11.4-6.3 3.8-2.2 3.7-2.2 3.8-2.2 22.8-12.6 3.8-2.2 3.7-2.2 7.4-4.6 7.2-4.8 7-4.8 7-5 28-20.8 7-5 7.2-4.8 3.7-2.3 3.7-2.2 3.8-2.2 7.6-4.2 3.8-2 11.4-6.3 3.8-2 15.2-8.4 3.8-2 15.2-8.4 3.7-2.2 3.7-2.3 3.6-2.3 3.6-2.4 3.5-2.4 3.5-2.5 3.4-2.7 3.3-2.8 3.2-2.9 3.1-3.1 2.8-3.2 2.7-3.5 2.4-3.6 2.2-3.7 2-3.9 1.8-3.9 1.7-4 3.2-8 1.7-4 1.8-3.9 2-3.9 2.2-3.7 2.4-3.6 2.6-3.5 2.8-3.3 2.9-3.2 3-3.1 3.1-3 3.2-3 12.8-11.6 3.2-2.8 3.3-2.8 3.4-2.7 3.5-2.6 3.6-2.4 3.7-2.2 3.9-2 3.9-1.7 4.1-1.5 4.2-1.3 4.2-1 4.3-0.8 4.3-0.6 4.3-0.5 4.3-0.4 12.9-0.6m-442.5 314.7 4.2-1.1 4.2-1.2 4.2-1.3 4.1-1.3 4.1-1.5 4-1.6 4-1.7 7.8-3.6 3.9-1.9 7.8-4 7.8-4.2 3.8-2.1 3.8-2 11.4-6.3 3.7-2.2 3.7-2.3 7.2-4.8 3.5-2.4 3.5-2.5 3.5-2.6 3.5-2.7 17-13.5 3.5-2.7 28-20.8 3.5-2.7 13.6-10.8 3.4-2.8 19.8-16.8 6.4-5.6 13.2-11.2 6.8-5.4 10.5-7.8 17.5-12.5 24.5-16.8 7-5 3.5-2.6 3.5-2.7 3.4-2.7 3.3-2.8 3.2-2.8 3.2-3 3-3.1 2.8-3.2 2.7-3.5 2.4-3.6 2.1-3.8 1.9-3.9 1.7-4 1.5-4.1 1.3-4.1 3.6-12.6 1.3-4.1 1.5-4.1 1.7-4 1.9-3.9 2.1-3.8 2.3-3.7 2.4-3.5 2.6-3.5 2.7-3.4 2.8-3.4 11.2-13.2 2.9-3.2 3-3.2 3.1-3.1 3.2-2.9 3.4-2.8 3.5-2.5 3.6-2.3 3.8-2 3.9-1.8 4-1.6 4.1-1.3 4.2-1.2 4.3-0.9 4.3-0.8 8.6-1.2 4.3-0.5 4.3-0.4 4.3-0.3m-408.1 355.9 12-4.8 8-3.4 3.9-1.8 3.9-2 3.8-2.1 3.7-2.2 3.7-2.3 3.6-2.4 3.5-2.4 3.5-2.5 7-5.2 6.8-5.4 3.4-2.8 9.9-8.4 3.2-2.8 3.2-2.9 6.4-6 24.8-24.8 3.1-3 22.4-21 32-29 3.2-3 3.1-3 6.2-6.2 3-3.1 9-9.6 3-3.1 12.4-12.4 3.1-3 9.6-9 9.6-8.7 12.8-11.2 9.6-8.7 6.4-6 3.1-3.1 3-3.1 2.9-3.2 2.8-3.3 2.6-3.5 2.4-3.6 2.2-3.8 1.9-3.9 1.7-4 1.4-4.1 1.2-4.2 1-4.2 3.6-17.2 1.1-4.2 1.3-4.2 1.5-4.1 1.7-4 1.9-3.9 2.1-3.9 2.2-3.8 2.3-3.7 7.2-10.8 4.8-7 2.5-3.5 2.6-3.5 2.8-3.4 2.9-3.2 3.1-3.1 3.2-2.9 3.4-2.7 3.5-2.4 3.7-2.2 3.9-2 3.9-1.8 4-1.6 4.1-1.4 4.2-1.3 4.2-1.1 4.3-0.9 4.3-0.8 4.3-0.7 4.3-0.6 4.3-0.5m-371.2 395.6 19-10.5 3.7-2.2 3.7-2.3 3.6-2.4 3.5-2.5 3.5-2.6 3.4-2.8 3.3-2.8 3.2-2.9 3.2-3 3.1-3.1 6-6.4 5.8-6.4 5.6-6.6 2.8-3.4 5.4-6.8 13-17.5 8.1-10.2 5.6-6.8 22.4-26.4 2.8-3.2 2.9-3.2 6-6.4 15.5-15.5 6-6.4 2.9-3.2 2.8-3.2 5.6-6.6 27-34 2.8-3.4 30.8-36.3 2.8-3.4 2.7-3.4 2.6-3.5 2.5-3.5 2.4-3.6 2.1-3.8 1.9-3.9 1.7-4 1.4-4.1 1.2-4.2 0.9-4.3 0.8-4.3 0.7-4.3 1.2-8.6 0.7-4.3 0.8-4.3 0.9-4.3 1.2-4.2 1.3-4.1 1.6-4 1.7-3.9 1.9-3.9 2.1-3.9 4.2-7.6 6.6-11.1 2.3-3.7 2.4-3.6 2.4-3.5 2.6-3.5 2.8-3.4 2.9-3.2 3.1-3 3.3-2.8 3.5-2.6 3.6-2.4 3.7-2.2 3.9-2.1 3.9-1.8 4-1.7 4.1-1.5 4.1-1.3 4.2-1.3 4.2-1.1 8.6-1.8 4.3-0.8m-331.7 429.5 3.5-2.6 3.5-2.7 3.4-2.7 6.8-5.6 6.6-5.6 3.2-2.8 3.2-2.9 3.2-3 3.1-3.1 3-3.2 2.9-3.2 2.8-3.3 2.8-3.4 2.7-3.4 2.6-3.5 2.5-3.5 2.4-3.5 2.4-3.6 2.3-3.6 2.3-3.7 2.2-3.8 4.2-7.6 2-3.8 6.3-11.4 2.2-3.7 4.6-7.4 21.6-32.4 2.4-3.5 2.5-3.5 2.6-3.5 2.7-3.4 5.6-6.6 2.8-3.2 8.7-9.6 2.8-3.2 2.8-3.3 2.8-3.4 2.7-3.4 2.6-3.5 2.5-3.5 2.4-3.5 4.8-7.2 4.6-7.4 11-18.5 27.6-44.4 2.2-3.7 2.1-3.8 2.1-3.9 1.9-3.9 1.7-3.9 1.6-4 1.3-4.1 1.1-4.2 0.9-4.3 0.7-4.3 0.6-4.3 0.5-4.3 0.8-8.6 0.5-4.3 0.6-4.3 0.7-4.3 0.9-4.3 1.1-4.2 1.3-4.1 1.5-4.1 1.7-3.9 1.9-3.9 2-3.9 10.5-19 2.2-3.8 2.2-3.7 2.3-3.6 2.4-3.5 2.6-3.5 2.8-3.3 3-3.2 3.2-3 3.3-2.8 3.5-2.6 3.6-2.4 3.8-2.2 3.9-2 3.9-1.8 4-1.7 4-1.6 4.1-1.4 4.1-1.3 4.2-1.3 4.2-1.2 4.2-1m-289 458.3 2.8-3.3 8.4-9.6 8.4-9.9 2.8-3.4 5.4-6.8 5.2-7 2.5-3.5 2.4-3.5 2.4-3.6 2.3-3.7 2.2-3.7 4.2-7.6 2-3.9 1.9-3.9 1.8-3.9 1.7-3.9 1.7-4 6.4-16 3.4-8 1.7-3.9 1.8-3.9 13.3-27.3 4-7.8 4.2-7.6 2.3-3.7 2.4-3.6 2.4-3.5 2.5-3.5 2.6-3.5 5.4-6.8 2.8-3.4 2.7-3.4 2.7-3.5 2.6-3.5 2.5-3.5 2.4-3.6 2.3-3.7 2.2-3.7 2.1-3.8 2.1-3.9 2-3.9 3.8-7.8 3.6-7.8 11.9-27.3 10.2-24 1.6-4 1.5-4 1.4-4.1 1.3-4.1 1.3-4.2 1.1-4.2 0.9-4.3 0.7-4.3 0.6-4.3 0.4-4.3 0.3-4.3 0.8-17.2 0.3-4.3 0.4-4.3 0.6-4.3 0.8-4.3 1-4.3 1.2-4.2 1.4-4.1 1.7-4 1.8-3.9 1.9-3.9 2-3.9 2.1-3.9 2-3.9 10.5-19 2.3-3.7 2.4-3.6 2.6-3.5 2.8-3.3 3-3.2 3.2-2.9 3.4-2.7 3.5-2.4 3.7-2.3 3.8-2.1 3.9-1.9 3.9-1.7 4-1.7 4-1.5 4.1-1.4 8.2-2.6 4.2-1.3m-242.5 482 2-3.9 2.1-3.9 4.2-7.6 2.2-3.8 4.4-7.4 6.3-11.4 6-11.7 3.8-7.8 3.6-7.8 3.4-8 1.6-4 1.5-4.1 1.4-4.1 1.3-4.1 1.3-4.2 6-21 2.6-8.4 2.6-8.2 5.6-16.4 4.5-12.3 1.6-4 1.7-4 1.7-3.9 1.9-3.9 2-3.9 2.1-3.8 2.3-3.7 2.4-3.6 2.4-3.5 7.5-10.5 2.4-3.5 2.4-3.6 2.3-3.6 2.2-3.7 2.1-3.8 2-3.9 1.9-3.9 1.8-3.9 1.7-4 1.6-4 1.5-4 2.8-8.2 2.6-8.2 2.6-8.4 2.4-8.4 2.2-8.4 2-8.4 3.6-17.2 0.8-4.3 0.7-4.3 1.2-8.6 0.4-4.3 0.3-4.3 0.2-4.3v-4.3-4.3-4.3l-0.2-4.3v-4.3l-0.2-4.3v-4.3l0.4-8.6 0.4-4.3 0.6-4.3 0.8-4.3 0.9-4.3 1.2-4.2 1.3-4.1 1.5-4.1 1.7-4 1.7-3.9 3.6-7.8 7.6-15.6 2-3.9 2-3.8 2.2-3.8 2.4-3.6 2.5-3.5 2.8-3.4 3-3.2 3.2-2.9 3.4-2.7 3.5-2.4 3.7-2.2 3.9-2 3.9-1.8 4-1.7 4.1-1.5 4.1-1.4 4.1-1.3 8.4-2.6m-192.5 502 2.8-8.2 1.3-4.1 7-20.5 5.2-16.4 3.9-12.6 2.4-8.4 2.2-8.4 1-4.2 1-4.3 1.8-8.6 5.6-30.1 3.6-17.2 1-4.3 4-16.8 1.1-4.2 1.2-4.2 1.3-4.2 1.3-4.1 1.5-4.1 1.7-4 1.7-3.9 1.9-3.9 2-3.9 2.1-3.8 2.2-3.7 6.9-11.1 2.2-3.7 2.1-3.8 2.1-3.9 2-3.9 1.8-3.9 1.7-4 1.6-4 1.5-4.1 1.3-4.1 1.3-4.2 1.2-4.2 1.1-4.2 1-4.3 1.8-8.6 0.8-4.3 0.7-4.3 1.8-12.9 0.5-4.3 0.4-4.3 0.3-4.3 0.6-12.9v-4.3-4.3-8.7l-0.4-8.6-0.3-4.3-2.4-25.8-0.3-4.3-0.2-4.3v-4.3-4.3l0.2-4.3 0.3-4.3 0.6-4.3 0.7-4.3 0.9-4.3 1-4.3 1.1-4.2 1.3-4.2 1.3-4.1 1.4-4.1 1.5-4.1 3.2-8 1.7-4 1.7-3.9 1.8-3.9 1.9-3.9 2.1-3.9 2.2-3.7 2.4-3.6 2.6-3.5 2.8-3.3 3-3.2 3.2-2.9 3.5-2.7 3.6-2.4 3.8-2.1 3.9-2 3.9-1.7 4-1.6 4.1-1.4 4.2-1.3 4.2-1.2m-137.3 519.1 1-4.3 2.7-12.9 0.8-4.3 1.4-8.6 2.4-17.2 2-17.2 1.2-12.9 1.2-17.2 1-21.5 0.6-8.6 0.8-8.6 0.5-4.3 3.6-25.8 1.4-8.6 0.8-4.3 1.8-8.6 1.1-4.2 1.3-4.2 1.3-4.1 1.5-4.1 1.7-4 1.7-3.9 1.9-3.9 8-15.6 1.9-3.9 1.8-3.9 1.7-3.9 1.7-4 1.5-4 1.4-4.1 1.3-4.2 1.2-4.2 1-4.2 1.8-8.6 0.7-4.3 1.2-8.6 0.5-4.3 0.3-4.3 0.4-8.6v-4.3-4.3l-0.4-8.6-0.3-4.3-0.4-4.3-1-8.6-1.8-12.9-1.4-8.6-2.4-12.9-1.8-8.6-1.6-8.6-0.7-4.3-1.2-8.6-0.5-4.3-0.3-4.3-0.2-4.3v-4.3l0.2-4.3 0.3-4.3 0.4-4.3 0.6-4.3 0.7-4.3 0.8-4.3 0.9-4.3 1-4.2 1.1-4.2 1.2-4.2 1.3-4.2 1.3-4.1 1.4-4.1 1.5-4.1 1.7-4 1.8-3.9 2-3.9 2.1-3.8 2.3-3.7 2.5-3.5 2.7-3.4 2.9-3.2 3.1-3 3.3-2.8 3.5-2.6 3.6-2.4 3.8-2.1 3.9-1.9 4-1.7 4-1.5m-76.7 531.3 1.5-21.5 0.6-12.9v-4.3-4.3-4.3l-0.6-12.9-0.6-8.6-0.8-8.6-3.5-30.1-0.8-8.6-0.3-4.3-0.4-8.6v-4.3l-0.2-4.3v-8.7l0.8-17.2 0.6-8.6 0.4-4.3 0.5-4.3 0.6-4.3 0.7-4.3 0.8-4.3 0.9-4.3 1.1-4.2 1.3-4.2 1.3-4.1 1.5-4.1 1.6-4 6.8-16 3.2-8 1.4-4.1 1.3-4.1 1.3-4.2 1.1-4.2 1-4.2 0.9-4.3 0.8-4.3 1.2-8.6 0.4-4.3 0.3-4.3 0.2-4.3v-4.3-4.3l-0.2-4.3-0.3-4.3-0.4-4.3-1.2-8.6-0.7-4.3-2.7-12.9-2-8.4-2.2-8.4-4.8-16.8-1.3-4.2-4.8-16.8-1.1-4.2-1-4.2-1.8-8.6-0.7-4.3-0.6-4.3-0.5-4.3-0.3-4.3-0.2-4.3v-8.7s0.3-4.3 0.3-4.3l0.4-4.3 0.5-4.3 1.8-12.9 0.7-4.3 0.8-4.3 0.9-4.3 1-4.2 1.1-4.2 1.3-4.1 1.5-4.1 1.7-4 1.8-3.9 2.1-3.8 2.2-3.7 2.4-3.5 2.7-3.5 2.8-3.2 3.1-3.1 3.2-2.9 3.4-2.7 3.6-2.4 3.7-2.2m-13.3 538.2-1.4-30.1-0.3-4.3-0.4-4.3-0.5-4.3-1.2-8.6-0.7-4.3-0.8-4.3-1.8-8.6-1-4.2-2.2-8.4-6-21-2.2-8.4-1-4.2-2.7-12.9-0.8-4.3-0.7-4.3-1.2-8.6-0.5-4.3-0.4-4.3-0.3-4.3-0.6-12.9v-4.3-4.3-4.3s0.3-4.3 0.3-4.3l0.3-4.3 0.5-4.3 0.6-4.3 0.7-4.3 1.8-8.6 1.1-4.2 1.2-4.2 2.6-8.4 1.3-4.1 2.6-8.4 1.2-4.2 1.1-4.2 1-4.2 0.9-4.3 0.8-4.3 0.7-4.3 0.6-4.3 0.5-4.3 0.4-4.3 0.4-8.6v-4.3l-0.4-8.6-0.4-4.3-0.6-4.3-0.7-4.3-0.8-4.3-0.9-4.3-1-4.2-1.2-4.2-1.3-4.2-2.6-8.2-2.8-8.2-3-8.2-1.8-3.8-8-20-1.5-4-3-8.2-1.4-4.1-2.6-8.2-1.3-4.2-1.1-4.2-1-4.2-0.9-4.3-0.8-4.3-1.2-8.6-0.4-4.3-0.4-8.6v-8.7l0.8-17.2 0.3-4.3 0.4-4.3 1.2-8.6 0.8-4.3 1-4.3 1.2-4.2 1.4-4.1 1.7-4 1.9-3.9 2.1-3.8 2.4-3.6 2.6-3.5 2.8-3.3 3-3.2 3.2-3m50 539.6-3.6-25.8-0.7-4.3-1.6-8.6-0.9-4.3-1-4.3-1.1-4.2-1.2-4.2-1.3-4.2-1.3-4.1-1.4-4.1-1.5-4.1-1.6-4-5.1-12-1.9-4.1-5.1-12-3.2-8-1.5-4-1.5-4.1-1.4-4.1-2.6-8.2-1.3-4.2-1.2-4.2-1.1-4.2-1-4.2-2.7-12.9-0.8-4.3-0.7-4.3-0.6-4.3-0.5-4.3-0.4-4.3-0.4-8.6v-4.3l0.4-8.6 0.4-4.3 0.5-4.3 0.6-4.3 0.7-4.3 4-21.5 1.4-8.6 1.2-8.6 0.4-4.3 0.3-4.3 0.4-8.6v-8.7s-0.3-4.3-0.3-4.3l-0.4-4.3-0.5-4.3-0.6-4.3-0.8-4.3-0.9-4.3-1-4.2-1.2-4.2-1.3-4.1-1.4-4.1-1.5-4.1-1.6-4-3.4-8-3.4-7.8-18-39-3.4-7.8-3.4-8-1.6-4-1.5-4.1-1.4-4.1-1.3-4.1-1.3-4.2-1.1-4.2-1-4.3-0.9-4.3-0.7-4.3-1.2-8.6-0.5-4.3-0.4-4.3-0.6-8.6-0.6-12.9v-4.3-4.3-4.3s0.3-4.3 0.3-4.3l0.4-4.3 0.6-4.3 0.9-4.3 1.2-4.2 1.4-4.1 1.7-3.9 2-3.9 2.3-3.7 2.5-3.5m113.2 533.4-2-8.4-3.3-12.6-3.6-12.6-1.3-4.2-1.3-4.1-1.4-4.1-1.5-4.1-1.6-4-1.7-4-1.7-3.9-1.8-3.9-3.8-7.8-14-27.3-2.1-3.9-5.7-11.7-3.6-7.8-1.7-3.9-5.1-12-3.2-8-1.5-4.1-1.4-4.1-2.6-8.2-1.2-4.2-1.1-4.2-1-4.2-0.9-4.3-0.8-4.3-1.2-8.6-0.4-4.3-0.3-4.3-0.2-4.3v-4.3-4.3-4.3l1.4-30.1v-4.3-4.3-4.3l-0.4-8.6-0.3-4.3-0.5-4.3-1.2-8.6-0.8-4.3-0.9-4.3-1-4.2-1.2-4.2-1.3-4.1-1.4-4.1-1.5-4-1.7-4-1.7-3.9-1.8-3.9-3.8-7.8-6-11.7-2.1-3.9-4.2-7.6-2-3.8-6.3-11.4-2-3.8-4.2-7.8-4-7.8-3.8-7.8-3.6-7.8-1.7-3.9-1.7-4-1.6-4-1.5-4.1-1.4-4.1-1.3-4.1-1.2-4.2-1.1-4.2-1-4.2-1.8-8.6-0.8-4.3-1.4-8.6-3-21.5-0.5-4.3-0.4-4.3-0.2-4.3v-4.3-4.3l0.5-4.3 0.8-4.3 1.1-4.2 1.4-4.1m174.8 521.7-1.3-4.1-1.4-4.1-1.5-4.1-1.5-4-1.6-4-3.4-8-1.7-3.9-3.6-7.8-3.8-7.8-4-7.8-8.4-15.2-17.6-29.6-2.2-3.8-10.5-19-2-3.8-2.1-3.9-6-11.7-1.9-3.9-3.6-7.8-1.7-3.9-3.4-8-1.6-4-1.5-4.1-1.4-4.1-1.3-4.1-1.3-4.2-1.2-4.2-1.1-4.2-1-4.3-0.9-4.3-0.8-4.3-1.4-8.6-6-43-0.7-4.3-0.8-4.3-1.8-8.6-1-4.2-1.1-4.2-1.2-4.2-1.3-4.1-1.4-4.1-1.5-4-1.7-4-1.7-3.9-1.8-3.9-1.9-3.9-2-3.9-2.1-3.9-6.3-11.4-6.6-11.1-16.1-25.9-6.6-11.1-2.2-3.8-8.4-15.2-4-7.8-1.9-3.9-3.6-7.8-3.4-8-1.3-4.4-1.4-4.1-1.3-4.1-1.3-4.2-2.4-8.4-8.8-33.6-1-4.2-1.8-8.6-0.7-4.3-0.6-4.3-0.2-4.3m232.3 505-1.7-4-3.6-7.8-1.9-3.9-4-7.8-6.3-11.4-6.6-11.1-6.9-11.1-43.2-64.8-6.9-11.1-2.2-3.7-2.2-3.8-4.2-7.6-2-3.8-2.1-3.9-4-7.8-3.8-7.8-3.6-7.8-3.4-7.8-3.4-8-3.2-8-1.7-4-4.2-12.3-13-41-2.8-8.2-1.5-4.1-1.6-4-3.4-8-1.8-3.9-1.9-3.9-4-7.8-4.2-7.6-4.4-7.4-2.3-3.7-2.3-3.6-9.6-14.4-21.6-31.5-12-18-2.3-3.6-4.6-7.4-2.2-3.7-2.2-3.8-2.1-3.8-2-3.8-2.1-3.9-2-3.9-1.9-3.9-1.8-3.9-1.7-3.9-3.4-8-3.2-8-3-8-3-8.2-6-16-3-8.2-1.4-4.1m281.9 479-4.2-7.6-4.4-7.4-2.3-3.7-9.6-14.4-4.8-7-15-21-33.8-45.5-12.5-17.5-7.2-10.5-12-18-2.3-3.6-13.8-22.2-6.6-11.1-10.5-19-2.1-3.9-18-35.1-1.8-4.2-6-11.7-2.1-3.9-2-3.8-4.2-7.6-2.2-3.7-4.6-7.4-7.2-10.8-2.4-3.5-7.5-10.5-13-17.5-2.7-3.5-16.2-20.4-2.7-3.5-15.6-21-7.5-10.5-2.4-3.5-7.2-10.8-4.6-7.4-2.2-3.7-4.2-7.6-2-3.8-2.1-3.9-10-19.5-9.5-19.5m325.9 454.5-10-14-10.4-14-32.4-40.8-2.7-3.5-7.8-10.5-2.7-3.5-8.1-10.2-2.8-3.4-36.4-42.9-8.4-10.2-13.5-17-2.7-3.5-18.2-24.5-47.5-66.5-10.4-14-2.7-3.5-10.8-13.6-8.4-10.2-53.2-62.7-5.6-6.8-8.1-10.2-7.8-10.5-7.5-10.5-4.8-7-14.4-21.6-4.6-7.4m365 423.8-37.7-41.6-87-92.8-78.3-86.4-2.2-3.4-34.8-38.4-2.8-3-26.1-28.8-51-54.4-26.1-28.8-11.2-12.8-19.6-23.1m397.8 392.5-38.4-34.8-99.2-93-28.8-26.1-3.7-2.2-153.6-139.2-9.6-9-38.4-34.8-6.4-5.6-26.4-22.4-10.2-8.4m433.4 352.4-21-15.6-3.5-2.7-20.4-16.2-23.8-19.6-36.3-30.8-23.8-19.6-47.6-37.8-28-21.6-44.2-35.1-3.5-2.7-3.6-2-7-5.4-49-36.4-10.5-8.1-44.2-35.1-3.5-2.7-10.5-7.8-7-5-3.5-2.4-10.8-7.2-3.7-2.3-3.7-2.2-3.8-2.2-11.4-6.3-7.8-4-7.8-3.8-7.8-3.6m463.9 313.3-46.8-31.2-14-9.6-21-15-14-10.4-24.5-17.5-10.5-7.2-79.2-52.8-24.5-16.8-57.6-38.4-7.2-4.6-51.8-32.2-7.2-4.6-7.2-4.8-7.2-4.6-11.1-6.9-3.7-2.2-11.4-6.3-3.9-2-3.9-1.9-3.9-1.8-3.9-1.7-4-1.7-4-1.6-4.1-1.5-4.1-1.4-4.2-1.3-4.2-1.2-4.2-1-4.3-0.9-4.3-0.8-4.3-0.6-4.3-0.5-4.3-0.3-4.3-0.2h-4.3m486.9 259-7.4-4.4-7.6-4.4-45.6-25.2-11.1-6.6-40.7-25.3-14.8-8.8-7.6-4.4-34.2-18.9-3.8-2-22.8-12.6-7.6-4.4-29.6-17.6-7.6-4.4-30.4-16.8-3.8-2-7.6-4.2-7.8-4.2-27.3-14-23.4-11.4-19.5-9-31.2-15.2-7.8-3.6-3.9-1.7-4-1.7-4-1.6-4-1.5-4.1-1.4-4.1-1.3-4.2-1.3-4.2-1.1-4.2-1-4.3-0.9-4.3-0.8-4.3-0.6-4.3-0.5-4.3-0.3-4.3-0.2h-4.3l-4.3 0.2-4.3 0.4-4.3 0.6-4.3 0.7-8.6 1.8-4.2 1.2-4.1 1.3m510.8 201.4-15.6-8.4-19.5-10-31.2-15.2-19.5-10-7.8-4.2-23.4-12-27.3-13.3-42.9-19.8-58.5-28.5-11.7-5.4-7.8-3.4-16-6.8-16-6.4-4-1.5-24.6-9-16.4-5.6-61.5-19.5-4.2-1.3-4.2-1.2-4.2-1.1-4.2-1-4.3-0.9-4.3-0.8-8.6-1.2-4.3-0.4-4.3-0.3-4.3-0.2h-4.3l-4.3 0.2-4.3 0.3-4.3 0.5-4.3 0.6-4.3 0.7-8.6 1.8-4.2 1.1-4.2 1.3-4.1 1.4-4 1.7-3.9 2-3.7 2.3-3.5 2.7-3.1 3m523.3 139.1-23.4-10.8-11.7-5.1-40-17-31.2-13.6-16-6.8-16-6.4-41-15-4-1.5-52-20.8-4-1.5-12.3-4.5-8.2-2.8-8.2-2.6-8.4-2.6-8.4-2.4-8.4-2.2-8.4-2-8.6-2-43-9-12.9-2.4-38.7-6.3-8.6-1.2-4.3-0.5-4.3-0.4-8.6-0.4h-4.3l-8.6 0.4-4.3 0.4-4.3 0.5-4.3 0.6-4.3 0.7-4.3 0.8-4.3 0.9-4.2 1-4.2 1.1-4.2 1.3-4.1 1.3-4.1 1.5-4 1.7-3.9 1.8-3.8 2.1-3.7 2.3-3.5 2.5-3.3 2.8-3.1 3.1-2.8 3.3-2.5 3.5-2.2 3.7m527.6 73.2-24-9.6-8-3-16.4-6-32.8-11.2-20.5-7.5-16.4-5.6-8.2-2.6-8.4-2.6-12.6-3.6-29.4-7.7-12.6-3.6-29.4-9.1-12.6-3.6-21-5.5-8.4-2-4.3-1-12.9-2.7-4.3-0.8-8.6-1.4-12.9-1.8-34.4-4-8.6-0.8-8.6-0.6-12.9-0.6h-4.3l-4.3-0.2h-13l-4.3 0.2h-4.3l-17.2 0.8-4.3 0.4-4.3 0.5-4.3 0.6-4.3 0.7-8.6 1.8-4.2 1.1-4.2 1.2-4.2 1.3-4.1 1.3-4.1 1.4-4 1.5-4 1.6-4 1.7-3.9 1.8-3.9 1.9-3.9 2-3.8 2.1-3.7 2.2-3.7 2.3-3.6 2.4-3.5 2.5-3.4 2.7-3.3 2.8-3.2 3-2.9 3.2-2.8 3.4-2.4 3.5-2.2 3.8-1.9 3.9m527.9 7.7-36.9-11.7-8.4-2.6-16.8-4.8-21-5.5-25.2-7.2-12.6-3.3-8.4-2-17.2-3.6-12.9-2.4-21.5-3.5-17.2-3.2-8.6-1.8-12.9-2.4-8.6-1.4-43-6-4.3-0.5-8.6-0.8-4.3-0.3-12.9-0.6h-4.3l-4.3-0.2h-4.3-4.3-21.7l-12.9 0.6-4.3 0.3-4.3 0.4-4.3 0.5-8.6 1.2-4.3 0.7-4.3 0.8-12.9 2.7-4.3 1-4.2 1-4.2 1.1-4.2 1.2-4.2 1.3-4.1 1.3-4.1 1.4-4 1.5-4 1.7-3.9 1.7-3.9 1.8-7.8 4-3.8 2.1-3.7 2.2-3.7 2.3-7.2 4.8-7 5-21 15.6-3.4 2.7-3.3 2.8-3.2 2.8-3.2 3-3 3.2-2.8 3.3-2.5 3.5-2.3 3.7-2 3.9-1.7 4"/>
 </g>
</svg>
