<svg version="1.1" viewBox="0 0 520 529.3" xmlns="http://www.w3.org/2000/svg"><defs><style>.st0{fill:#1c252c}.st1{fill:none;stroke:#89c992;stroke-linecap:round;stroke-miterlimit:10}</style></defs><path class="st1" d="M.5,169.4L276-.1"/><path class="st1" d="M.5,169.4l32.2,34.5"/><path class="st1" d="M.5,169.4l42.6,148"/><path class="st1" d="M.5,169.4l258.9,283.5"/><path class="st1" d="m247.7 82.7-215 121.2"/><path class="st1" d="M247.7,82.7L276-.1"/><path class="st1" d="m247.7 82.7-21.3 152.1"/><path class="st1" d="m247.7 82.7 182.6 164.3"/><path class="st1" d="m235.5 193-192.5 124.4"/><path class="st1" d="m235.5 193-9.1 41.8"/><path class="st1" d="M235.5,193L276-.1"/><path class="st1" d="m235.5 193 158.1 152.5"/><path class="st1" d="m519.5 225.1-260.2 227.8"/><path class="st1" d="m519.5 225.1-89.2 22"/><path class="st1" d="m519.5 225.1-125.9 120.5"/><path class="st1" d="M519.5,225.1L276-.1"/><path class="st1" d="m94.5 310.9 132-76"/><path class="st1" d="m94.5 310.9-51.4 6.5"/><path class="st1" d="m94.5 310.9-61.8-107"/><path class="st1" d="m94.5 310.9 112.6 149.9"/><path class="st1" d="m230.7 426.5 199.6-179.4"/><path class="st1" d="m230.7 426.5 28.7 26.4"/><path class="st1" d="m230.7 426.5-23.7 34.3"/><path class="st1" d="m230.7 426.5-198-222.6"/><path class="st1" d="m216.5 528.2 177.2-182.6"/><path class="st1" d="m216.5 528.2-9.4-67.4"/><path class="st1" d="m216.5 528.2 42.9-75.3"/><path class="st1" d="M216.5,528.2L43.1,317.4"/><path class="st1" d="m323.7 326.5-116.6 134.2"/><path class="st1" d="m323.7 326.5 70 19"/><path class="st1" d="m323.7 326.5 106.7-79.5"/><path class="st1" d="m323.7 326.5-97.2-91.6"/><path class="st0" d="m5503.6 1221.1c1.9 0 1.9-3 0-3s-1.9 3 0 3z"/></svg>
