<svg version="1.1" viewBox="0 0 505.8 544.6" xmlns="http://www.w3.org/2000/svg"><defs><style>.st0{fill:none;stroke:#ed8b00;stroke-linecap:round;stroke-miterlimit:10;stroke-width:.5px}</style></defs><path class="st0" d="m0.4 441.6 55.8-55.8 55.8 55.8-55.8 55.8-55.8-55.8zm1.3-8.6 60.4-60.4 60.4 60.4-60.4 60.4-60.4-60.4zm1.3-9.8 65.1-65.1 65.1 65.1-65.1 65.1-65.1-65.1zm1.2-10.7 69.9-69.9 69.9 69.9-69.9 69.9-69.9-69.9zm0.9-11.3 74.7-74.7 74.7 74.7-74.7 74.7-74.7-74.7zm0.8-11.4 79.4-79.4 79.4 79.4-79.4 79.4-79.4-79.4zm0.5-11 84.1-84.1 84.1 84.1-84.1 84.1-84.1-84.1zm0.1-10.3 88.6-88.6 88.6 88.6-88.6 88.6-88.6-88.6zm-0.1-9.2 92.8-92.8 92.8 92.8-92.8 92.8-92.8-92.8zm-0.4-7.7 96.8-96.8 96.8 96.8-96.8 96.8-96.8-96.8zm-0.5-6.1 100.4-100.4 100.4 100.4-100.4 100.4-100.4-100.4zm-0.6-4.5 103.7-103.7 103.7 103.7-103.7 103.7-103.7-103.7zm-0.6-2.8 106.6-106.5 106.6 106.5-106.6 106.5-106.6-106.5zm-0.4-1.1 108.9-108.9 108.9 108.9-108.9 108.9-108.9-108.9zm-0.1 0.2 110.8-110.8 110.8 110.8-110.8 110.8-110.8-110.8zm0.2 1.3 112.2-112.2 112.2 112.2-112.2 112.2-112.2-112.2zm0.7 2.4 113.1-113.1 113.1 113.1-113.1 113.1-113.1-113.1zm1.3 3 113.4-113.4 113.4 113.4-113.4 113.4-113.4-113.4zm1.8 3.4 113.2-113.2 113.2 113.2-113.2 113.2-113.2-113.2zm2.4 3.6 112.4-112.4 112.4 112.4-112.4 112.4-112.4-112.4zm3.1 3.6 111.2-111.2 111.2 111.2-111.2 111.2-111.2-111.2zm3.7 3.5 109.4-109.3 109.4 109.3-109.4 109.3-109.4-109.3zm4.2 3.1 107.1-107.1 107.1 107.1-107.1 107.1-107.1-107.1zm4.8 2.8 104.3-104.3 104.3 104.3-104.3 104.3-104.3-104.3zm5.3 2.3 101.1-101.1 101.1 101.1-101.1 101.1-101.1-101.1zm5.7 1.9 97.5-97.5 97.5 97.5-97.5 97.5-97.5-97.5zm6.1 1.3 93.6-93.6 93.6 93.6-93.6 93.6-93.6-93.6zm6.4 0.8 89.4-89.4 89.4 89.4-89.4 89.4-89.4-89.4zm6.7 0.3 85-85 85 85-85 85-85-85zm6.8-0.1 80.4-80.4 80.4 80.4-80.4 80.4-80.4-80.4zm6.9-0.5 75.6-75.6 75.6 75.6-75.6 75.6-75.6-75.6zm6.9-0.9 70.8-70.8 70.8 70.8-70.8 70.8-70.8-70.8zm6.9-1.2 66-66 66 66-66 66-66-66zm6.7-1.3 61.3-61.3 61.3 61.3-61.3 61.3-61.3-61.3zm6.6-1.6 56.7-56.7 56.7 56.7-56.7 56.7-56.7-56.7zm6.4-1.6 52.2-52.2 52.2 52.2-52.2 52.2-52.2-52.2zm6.1-1.7 48-48 48.1 48-48.1 48-48-48zm5.7-1.6 44.1-44.1 44.1 44.1-44.1 44.1-44.1-44.1zm5.4-1.6 40.6-40.6 40.6 40.6-40.6 40.6-40.6-40.6zm5-1.4 37.4-37.4 37.4 37.4-37.4 37.4-37.4-37.4zm4.6-1.3 34.7-34.7 34.7 34.7-34.7 34.7-34.7-34.7zm4.2-1.1 32.4-32.4 32.4 32.4-32.4 32.4-32.4-32.4zm3.6-0.8 30.6-30.6 30.6 30.6-30.6 30.6-30.6-30.6zm3.3-0.6 29.3-29.3 29.3 29.3-29.3 29.3-29.3-29.3zm2.7-0.3 28.6-28.6 28.6 28.6-28.6 28.6-28.6-28.6zm2.4 0 28.4-28.4 28.4 28.4-28.4 28.4-28.4-28.4zm1.9 0.4 28.7-28.7 28.7 28.7-28.7 28.7-28.7-28.7zm1.5 0.9 29.6-29.6 29.6 29.6-29.6 29.6-29.6-29.6zm1.1 1.3 31-31 31 31-31 31-31-31zm0.9 1.8 32.9-32.9 32.9 32.9-32.9 32.9-32.9-32.9zm0.7 2.5 35.3-35.3 35.3 35.3-35.3 35.3-35.3-35.3zm0.5 3 38.2-38.2 38.2 38.2-38.2 38.2-38.2-38.2zm0.5 3.8 41.4-41.4 41.4 41.4-41.4 41.4-41.4-41.4zm0.5 4.5 45.1-45.1 45.1 45.1-45.1 45.1-45.1-45.1zm0.6 5.2 49.1-49.1 49.1 49.1-49.1 49.1-49.1-49.1zm0.8 6 53.3-53.3 53.3 53.3-53.3 53.3-53.3-53.3zm1.1 6.5 57.8-57.8 57.8 57.8-57.8 57.8-57.8-57.8zm1.3 7.1 62.5-62.5 62.5 62.5-62.5 62.5-62.5-62.5zm1.6 7.4 67.2-67.2 67.2 67.2-67.2 67.2-67.2-67.2zm1.9 7.6 72-72 72 72-72 72-72-72zm2.1 7.3 76.8-76.8 76.8 76.8-76.8 76.8-76.8-76.8zm2.2 6.9 81.5-81.5 81.5 81.5-81.5 81.5-81.5-81.5zm2.2 6 86.1-86.1 86.1 86.1-86.1 86.1-86.1-86.1zm2 4.9 90.5-90.5 90.5 90.5-90.5 90.5-90.5-90.5zm1.7 3.5 94.6-94.6 94.6 94.6-94.6 94.6-94.6-94.6zm1.1 1.8 98.5-98.5 98.5 98.5-98.5 98.5-98.5-98.5zm0.6-0.1 101.9-101.9 101.9 101.9-101.9 101.9-101.9-101.9zm-0.1-2 105-105 105 105-105 105-105-105zm-0.9-3.9 107.7-107.7 107.7 107.7-107.7 107.7-107.7-107.7zm-1.6-5.7 109.8-109.8 109.8 109.8-109.8 109.8-109.8-109.8zm-2.2-7.1 111.5-111.5 111.5 111.5-111.5 111.5-111.5-111.5zm-2.7-8.4 112.7-112.7 112.7 112.7-112.7 112.7-112.7-112.7zm-3-9.3 113.3-113.3 113.3 113.3-113.3 113.3-113.3-113.3zm-3.2-9.9 113.4-113.4 113.4 113.4-113.4 113.4-113.4-113.4zm-3.1-10 112.9-112.9 112.9 112.9-112.9 112.9-112.9-112.9zm-2.7-10 111.9-111.9 111.9 111.9-111.9 111.9-111.9-111.9zm-2.3-9.6 110.4-110.4 110.4 110.4-110.4 110.4-110.4-110.4zm-1.7-9 108.4-108.4 108.4 108.4-108.4 108.4-108.4-108.4zm-0.9-8.3 105.9-105.9 105.9 105.9-105.9 105.9-105.9-105.9zm-0.1-7.6 102.9-102.9 102.9 102.9-102.9 102.9-102.9-102.9zm0.7-6.7 99.6-99.6 99.6 99.6-99.6 99.6-99.6-99.6zm1.6-5.9 95.8-95.8 95.8 95.8-95.8 95.8-95.8-95.8zm2.3-5.2 91.8-91.8 91.8 91.8-91.8 91.8-91.8-91.8zm3.1-4.5 87.5-87.5 87.5 87.5-87.5 87.5-87.5-87.5zm3.8-3.8 83-83 83 83-83 83-83-83zm4.3-3.4 78.3-78.3 78.3 78.3-78.3 78.3-78.3-78.3zm4.7-2.9 73.5-73.5 73.5 73.5-73.5 73.5-73.5-73.5zm5.1-2.5 68.7-68.7 68.7 68.7-68.7 68.7-68.7-68.7zm5.3-2.1 63.9-63.9 63.9 63.9-63.9 63.9-63.9-63.9zm5.5-2 59.2-59.2 59.2 59.2-59.2 59.2-59.2-59.2zm5.5-1.7 54.7-54.7 54.7 54.7-54.7 54.7-54.7-54.7zm5.6-1.5 50.3-50.3 50.3 50.3-50.3 50.3-50.3-50.3zm5.4-1.3 46.3-46.3 46.3 46.3-46.3 46.3-46.3-46.3zm5.3-1.3 42.5-42.5 42.5 42.5-42.5 42.5-42.5-42.5zm5.1-1.1 39.1-39.1 39.1 39.1-39.1 39.1-39.1-39.1zm4.7-1 36.1-36.1 36.1 36.1-36.1 36.1-36.1-36.1zm4.5-1 33.6-33.6 33.6 33.6-33.6 33.6-33.6-33.6zm4.1-0.9 31.5-31.5 31.5 31.5-31.5 31.5-31.5-31.5zm3.6-0.9 30-30 30 30-30 30-30-30zm3.1-1 28.9-28.9 28.9 28.9-28.9 28.9-28.9-28.9zm2.6-0.9 28.4-28.4 28.4 28.4-28.4 28.4-28.4-28.4zm2-1.1 28.4-28.4 28.4 28.4-28.4 28.4-28.4-28.4zm1.4-1.1 29-29 29 29-29 29-29-29zm0.7-1.3 30.1-30.1 30.1 30.1-30.1 30.1-30.1-30.1zm-0.1-1.4 31.8-31.8 31.8 31.8-31.8 31.8-31.8-31.8zm-0.8-1.6 33.9-33.9 33.9 33.9-33.9 33.9-33.9-33.9zm-1.6-1.8 36.5-36.5 36.5 36.5-36.5 36.5-36.5-36.5zm-2.3-1.9 39.6-39.6 39.6 39.6-39.6 39.6-39.6-39.6zm-3.1-2.2 43-43 43 43-43 43-43-43zm-3.9-2.4 46.8-46.8 46.8 46.8-46.8 46.8-46.8-46.8zm-4.5-2.5 50.9-50.9 50.9 50.9-50.9 50.9-50.9-50.9zm-5.2-2.7 55.3-55.3 55.3 55.3-55.3 55.3-55.3-55.3zm-5.7-2.8 59.9-59.9 59.9 59.9-59.9 59.9-59.9-59.9zm-6.1-2.8 64.6-64.6 64.6 64.6-64.6 64.6-64.6-64.6zm-6.3-2.8 69.4-69.3 69.3 69.3-69.3 69.3-69.4-69.3zm-6.3-2.8 74.2-74.2 74.2 74.2-74.2 74.2-74.2-74.2zm-6.2-2.7 78.9-78.9 78.9 78.9-78.9 78.9-78.9-78.9zm-5.7-2.4 83.6-83.6 83.6 83.6-83.6 83.6-83.6-83.6zm-5-2.2 88.1-88.1 88.1 88.1-88.1 88.1-88.1-88.1zm-4-1.8 92.4-92.4 92.4 92.4-92.4 92.4-92.4-92.4zm-2.7-1.4 96.4-96.4 96.4 96.4-96.4 96.4-96.4-96.4zm-1.2-0.9 100.1-100.1 100.1 100.1-100.1 100-100.1-100zm0.7-0.6 103.4-103.4 103.4 103.4-103.4 103.4-103.4-103.4zm2.6-0.1 106.3-106.3 106.3 106.3-106.3 106.3-106.3-106.3zm4.7 0.3 108.7-108.7 108.7 108.7-108.7 108.7-108.7-108.7zm6.7 0.6 110.7-110.6 110.7 110.6-110.7 110.7-110.7-110.7zm8.7 0.8 112.1-112.1 112.1 112.1-112.1 112.1-112.1-112.1zm10.4 0.9 113-113 113 113-113 113-113-113zm11.8 0.8 113.4-113.4 113.4 113.4-113.4 113.4-113.4-113.4zm12.8 0.7 113.3-113.3 113.3 113.3-113.3 113.3-113.3-113.3zm13.4 0.3 112.6-112.6 112.6 112.6-112.6 112.6-112.6-112.6zm13.5-0.1 111.3-111.3 111.3 111.3-111.3 111.3-111.3-111.3zm13.2-0.6 109.6-109.6 109.6 109.6-109.6 109.6-109.6-109.6zm12.5-1.1 107.3-107.3 107.3 107.3-107.3 107.3-107.3-107.3zm11.4-1.6 104.6-104.6 104.6 104.6-104.6 104.6-104.6-104.6zm10.3-2.2 101.5-101.5 101.5 101.5-101.5 101.5-101.5-101.5zm8.9-2.6 98-98 98 98-98 98-98-98zm7.4-3 94.1-94.1 94.1 94.1-94.1 94.1-94.1-94.1zm6.2-3.3 89.9-89.9 89.9 89.9-89.9 89.9-89.9-89.9zm4.9-3.5 85.5-85.5 85.5 85.5-85.5 85.5-85.5-85.5zm3.8-3.7 80.9-80.9 80.9 80.9-80.9 80.9-80.9-80.9zm3-3.7 76.2-76.2 76.2 76.2-76.2 76.2-76.2-76.2zm2.3-3.8 71.4-71.4 71.4 71.4-71.4 71.4-71.4-71.4zm1.9-3.7 66.6-66.6 66.6 66.6-66.6 66.6-66.6-66.6zm1.4-3.7 61.8-61.8 61.8 61.8-61.8 61.8-61.8-61.8zm1.4-3.5 57.2-57.2 57.2 57.2-57.2 57.2-57.2-57.2zm1.2-3.5 52.7-52.7 52.7 52.7-52.7 52.7-52.7-52.7zm1.2-3.4 48.5-48.5 48.5 48.5-48.5 48.5-48.5-48.5zm1.3-3.3 44.6-44.6 44.6 44.6-44.6 44.6-44.6-44.6zm1.3-3.3 41-41 41 41-41 41-41-41zm1.4-3.1 37.7-37.7 37.7 37.7-37.7 37.7-37.7-37.7zm1.4-3.2 34.9-34.9 34.9 34.9-34.9 34.9-34.9-34.9zm1.3-3.1 32.6-32.6 32.6 32.6-32.6 32.6-32.6-32.6zm1.3-3.2 30.8-30.8 30.8 30.8-30.8 30.8-30.8-30.8zm1.1-3.1 29.4-29.4 29.4 29.4-29.4 29.4-29.4-29.4zm1-3.2 28.6-28.6 28.6 28.6-28.6 28.6-28.6-28.6zm0.7-3.2 28.4-28.4 28.4 28.4-28.4 28.4-28.4-28.4zm0.4-3.2 28.6-28.6 28.6 28.6-28.6 28.6-28.6-28.6zm0-3.3 29.5-29.5 29.5 29.5-29.5 29.5-29.5-29.5zm-0.5-3.4 30.8-30.8 30.8 30.8-30.8 30.8-30.8-30.8zm-0.9-3.3 32.7-32.7 32.7 32.7-32.7 32.7-32.7-32.7zm-1.5-3.4 35-35 35 35-35 35-35-35zm-2-3.5 37.8-37.8 37.8 37.8-37.8 37.8-37.8-37.8zm-2.5-3.4 41-41 41 41-41 41-41-41zm-3.2-3.4 44.7-44.7 44.7 44.7-44.7 44.7-44.7-44.7zm-3.7-3.4 48.6-48.6 48.6 48.6-48.6 48.6-48.6-48.6zm-4.2-3.4 52.8-52.8 52.8 52.8-52.8 52.8-52.8-52.8zm-4.8-3.3 57.3-57.3 57.3 57.3-57.3 57.3-57.3-57.3zm-5.3-3.3 61.9-61.9 61.9 61.9-61.9 61.9-61.9-61.9zm-5.7-3.1 66.7-66.7 66.7 66.7-66.7 66.7-66.7-66.7zm-6.2-3.1 71.5-71.5 71.5 71.5-71.5 71.5-71.5-71.5zm-6.7-2.9 76.3-76.3 76.3 76.3-76.3 76.3-76.3-76.3zm-7-2.7 81-81 81 81-81 81-81-81zm-7.5-2.6 85.6-85.6 85.6 85.6-85.6 85.6-85.6-85.6zm-7.9-2.3 90-90 90 90-90 90-90-90zm-8.2-2 94.2-94.2 94.2 94.2-94.2 94.2-94.2-94.2zm-8.7-1.7 98-98 98.1 98-98.1 98-98.1-98zm-9.1-1.2 101.5-101.6 101.6 101.6-101.6 101.6-101.6-101.6zm-9.5-0.9 104.7-104.7 104.7 104.7-104.7 104.7-104.7-104.7zm-9.9-0.4 107.4-107.4 107.4 107.4-107.4 107.4-107.4-107.4zm-10.2 0.1 109.7-109.6 109.6 109.6-109.6 109.6-109.6-109.6zm-10.3 0.6 111.3-111.3 111.4 111.4-111.4 111.4-111.4-111.4zm-10.5 1.1 112.6-112.5 112.6 112.6-112.6 112.6-112.6-112.6zm-10.2 1.5 113.2-113.2 113.3 113.3-113.3 113.3-113.3-113.3zm-10 1.9 113.4-113.4 113.4 113.4-113.4 113.4-113.4-113.4zm-9.2 2.1 113-113 113 113-113 113-113-113zm-8.3 2.1 112-112.1 112.1 112.1-112.1 112.1-112.1-112.1zm-7 2 110.6-110.6 110.6 110.6-110.6 110.6-110.6-110.6zm-5.5 1.6 108.7-108.6 108.6 108.6-108.6 108.6-108.6-108.6zm-3.5 1.1 106.2-106.2 106.2 106.2-106.2 106.2-106.2-106.2zm-1.5 0.3 103.3-103.3 103.3 103.3-103.3 103.3-103.3-103.3zm0.8-0.5 99.9-100 100 100-100 100-100-100zm3-1.7 96.2-96.3 96.3 96.3-96.3 96.3-96.3-96.3zm5.1-2.8 92.2-92.2 92.3 92.3-92.3 92.3-92.3-92.3zm7.1-3.9 88-88 88 88-88 88-88-88zm8.8-5 83.5-83.5 83.5 83.5-83.5 83.5-83.5-83.5zm10.1-6 78.8-78.8 78.8 78.8-78.8 78.8-78.8-78.8zm11-6.9 74-74 74 74-74 74-74-74zm11.6-7.4 69.2-69.2 69.2 69.2-69.2 69.2-69.2-69.2zm11.8-7.9 64.4-64.4 64.4 64.4-64.4 64.4-64.4-64.4z"/></svg>
